<?xml version="1.0" encoding="UTF-8" standalone="no"?>
<!DOCTYPE svg PUBLIC "-//W3C//DTD SVG 1.1//EN" "http://www.w3.org/Graphics/SVG/1.1/DTD/svg11.dtd">
<!-- Wygenerowane w programie Microsoft Visio, SVG Export Rysunek1.svg Page-1 -->
<svg xmlns="http://www.w3.org/2000/svg" xmlns:xlink="http://www.w3.org/1999/xlink" xmlns:ev="http://www.w3.org/2001/xml-events"
		width="7.99694in" height="4.87911in" viewBox="0 0 575.779 351.296" xml:space="preserve" color-interpolation-filters="sRGB"
		class="st5">
	<style type="text/css">
	<![CDATA[
		.st1 {marker-end:url(#mrkr4-43);stroke:#000000;stroke-linecap:round;stroke-linejoin:round;stroke-width:0.75}
		.st2 {fill:#000000;fill-opacity:1;stroke:#000000;stroke-opacity:1;stroke-width:0.22935779816514}
		.st3 {stroke:#000000;stroke-linecap:round;stroke-linejoin:round;stroke-width:0.75}
		.st4 {stroke:#000000;stroke-dasharray:5.25,3.75;stroke-linecap:round;stroke-linejoin:round;stroke-width:0.75}
		.st5 {fill:none;fill-rule:evenodd;font-size:12px;overflow:visible;stroke-linecap:square;stroke-miterlimit:3}
	]]>
	</style>

	<defs id="Markers">
		<g id="lend4">
			<path d="M 2 1 L 0 0 L 2 -1 L 2 1 " style="stroke:none"/>
		</g>
		<marker id="mrkr4-43" class="st2" refX="-8.72" orient="auto" markerUnits="strokeWidth" overflow="visible">
			<use xlink:href="#lend4" transform="scale(-4.36,-4.36) "/>
		</marker>
	</defs>
	<g>
		<title>Strona 1</title>
		<g id="group95-1" transform="translate(426.49,-18)">
			<title>Arkusz.95</title>
			<g id="shape96-2" transform="translate(0,-42.5197)">
				<title>Arkusz.96</title>
			</g>
			<g id="shape97-4" transform="translate(16.4111,-42.5197)">
				<title>Arkusz.97</title>
			</g>
			<g id="shape98-6" transform="translate(32.8222,5.68434E-14)">
				<title>Arkusz.98</title>
			</g>
			<g id="shape99-8" transform="translate(49.2333,5.68434E-14)">
				<title>Arkusz.99</title>
			</g>
		</g>
		<g id="group100-10" transform="translate(492.135,-18)">
			<title>Arkusz.100</title>
			<g id="shape101-11" transform="translate(0,-42.5197)">
				<title>Arkusz.101</title>
			</g>
			<g id="shape102-13" transform="translate(16.4111,-42.5197)">
				<title>Arkusz.102</title>
			</g>
			<g id="shape103-15" transform="translate(32.8222,5.68434E-14)">
				<title>Arkusz.103</title>
			</g>
			<g id="shape104-17" transform="translate(49.2333,5.68434E-14)">
				<title>Arkusz.104</title>
			</g>
		</g>
		<g id="group105-19" transform="translate(191.513,-226.123)">
			<title>Arkusz.105</title>
			<g id="shape106-20" transform="translate(0,-42.5197)">
				<title>Arkusz.106</title>
			</g>
			<g id="shape107-22" transform="translate(16.4111,-42.5197)">
				<title>Arkusz.107</title>
			</g>
			<g id="shape108-24" transform="translate(32.8222,5.68434E-14)">
				<title>Arkusz.108</title>
			</g>
			<g id="shape109-26" transform="translate(49.2333,5.68434E-14)">
				<title>Arkusz.109</title>
			</g>
		</g>
		<g id="group110-28" transform="translate(32.6239,-18)">
			<title>Arkusz.110</title>
			<g id="shape111-29" transform="translate(0,-42.5197)">
				<title>Arkusz.111</title>
			</g>
			<g id="shape112-31" transform="translate(16.4111,-42.5197)">
				<title>Arkusz.112</title>
			</g>
			<g id="shape113-33" transform="translate(32.8222,5.68434E-14)">
				<title>Arkusz.113</title>
			</g>
			<g id="shape114-35" transform="translate(49.2333,5.68434E-14)">
				<title>Arkusz.114</title>
			</g>
		</g>
		<g id="group123-37" transform="translate(25.3119,-87.3489)">
			<title>Arkusz.123</title>
			<g id="shape73-38" transform="translate(0,-119.318)">
				<title>Arkusz.73</title>
				<path d="M0 351.3 L470.73 351.3" class="st1"/>
			</g>
			<g id="shape74-44" transform="translate(-112.661,351.296) rotate(-90)">
				<title>Arkusz.74</title>
				<path d="M0 351.3 L232.1 351.3" class="st1"/>
			</g>
			<g id="group75-49" transform="translate(349.161,-47.7271)">
				<title>Arkusz.75</title>
				<g id="shape76-50" transform="translate(0,-71.5906)">
					<title>Arkusz.76</title>
					<path d="M0 351.3 L1.11 346.89 L3.65 337.16 L6.76 325.75 L9.91 314.82 L12.81 305.47 L15.37 298.02 L17.61 292.33
								 L19.64 288.02 L21.56 284.7 L23.44 282.16 L25.33 280.32 L27.63 279.71" class="st3"/>
				</g>
				<g id="shape77-53" transform="translate(27.6315,-71.5906)">
					<title>Arkusz.77</title>
					<path d="M27.63 351.3 L26.52 346.89 L23.98 337.16 L20.87 325.75 L17.72 314.82 L14.82 305.47 L12.26 298.02 L10.02
								 292.33 L8 288.02 L6.08 284.7 L4.19 282.16 L2.3 280.32 L0 279.71" class="st3"/>
				</g>
				<g id="shape78-56" transform="translate(55.2629,5.68434E-14)">
					<title>Arkusz.78</title>
					<path d="M0 279.71 L1.11 284.11 L3.65 293.85 L6.76 305.25 L9.91 316.18 L12.81 325.53 L15.37 332.98 L17.61 338.67
								 L19.64 342.99 L21.56 346.3 L23.44 348.84 L25.33 350.68 L27.63 351.3" class="st3"/>
				</g>
				<g id="shape79-59" transform="translate(82.8944,5.68434E-14)">
					<title>Arkusz.79</title>
					<path d="M27.63 279.71 L26.52 284.11 L23.98 293.85 L20.87 305.25 L17.72 316.18 L14.82 325.53 L12.26 332.98 L10.02
								 338.67 L8 342.99 L6.08 346.3 L4.19 348.84 L2.3 350.68 L0 351.3" class="st3"/>
				</g>
			</g>
			<g id="group80-62" transform="translate(238.635,-47.7271)">
				<title>Arkusz.80</title>
				<g id="shape81-63" transform="translate(0,-71.5906)">
					<title>Arkusz.81</title>
					<path d="M0 351.3 L1.11 346.89 L3.65 337.16 L6.76 325.75 L9.91 314.82 L12.81 305.47 L15.37 298.02 L17.61 292.33
								 L19.64 288.02 L21.56 284.7 L23.44 282.16 L25.33 280.32 L27.63 279.71" class="st3"/>
				</g>
				<g id="shape82-66" transform="translate(27.6315,-71.5906)">
					<title>Arkusz.82</title>
					<path d="M27.63 351.3 L26.52 346.89 L23.98 337.16 L20.87 325.75 L17.72 314.82 L14.82 305.47 L12.26 298.02 L10.02
								 292.33 L8 288.02 L6.08 284.7 L4.19 282.16 L2.3 280.32 L0 279.71" class="st3"/>
				</g>
				<g id="shape83-69" transform="translate(55.2629,5.68434E-14)">
					<title>Arkusz.83</title>
					<path d="M0 279.71 L1.11 284.11 L3.65 293.85 L6.76 305.25 L9.91 316.18 L12.81 325.53 L15.37 332.98 L17.61 338.67
								 L19.64 342.99 L21.56 346.3 L23.44 348.84 L25.33 350.68 L27.63 351.3" class="st3"/>
				</g>
				<g id="shape84-72" transform="translate(82.8944,5.68434E-14)">
					<title>Arkusz.84</title>
					<path d="M27.63 279.71 L26.52 284.11 L23.98 293.85 L20.87 305.25 L17.72 316.18 L14.82 325.53 L12.26 332.98 L10.02
								 338.67 L8 342.99 L6.08 346.3 L4.19 348.84 L2.3 350.68 L0 351.3" class="st3"/>
				</g>
			</g>
			<g id="group85-75" transform="translate(128.11,-47.7271)">
				<title>Arkusz.85</title>
				<g id="shape86-76" transform="translate(0,-71.5906)">
					<title>Arkusz.86</title>
					<path d="M0 351.3 L1.11 346.89 L3.65 337.16 L6.76 325.75 L9.91 314.82 L12.81 305.47 L15.37 298.02 L17.61 292.33
								 L19.64 288.02 L21.56 284.7 L23.44 282.16 L25.33 280.32 L27.63 279.71" class="st3"/>
				</g>
				<g id="shape87-79" transform="translate(27.6315,-71.5906)">
					<title>Arkusz.87</title>
					<path d="M27.63 351.3 L26.52 346.89 L23.98 337.16 L20.87 325.75 L17.72 314.82 L14.82 305.47 L12.26 298.02 L10.02
								 292.33 L8 288.02 L6.08 284.7 L4.19 282.16 L2.3 280.32 L0 279.71" class="st3"/>
				</g>
				<g id="shape88-82" transform="translate(55.2629,5.68434E-14)">
					<title>Arkusz.88</title>
					<path d="M0 279.71 L1.11 284.11 L3.65 293.85 L6.76 305.25 L9.91 316.18 L12.81 325.53 L15.37 332.98 L17.61 338.67
								 L19.64 342.99 L21.56 346.3 L23.44 348.84 L25.33 350.68 L27.63 351.3" class="st3"/>
				</g>
				<g id="shape89-85" transform="translate(82.8944,5.68434E-14)">
					<title>Arkusz.89</title>
					<path d="M27.63 279.71 L26.52 284.11 L23.98 293.85 L20.87 305.25 L17.72 316.18 L14.82 325.53 L12.26 332.98 L10.02
								 338.67 L8 342.99 L6.08 346.3 L4.19 348.84 L2.3 350.68 L0 351.3" class="st3"/>
				</g>
			</g>
			<g id="group90-88" transform="translate(17.5836,-47.7271)">
				<title>Arkusz.90</title>
				<g id="shape91-89" transform="translate(0,-71.5906)">
					<title>Arkusz.91</title>
					<path d="M0 351.3 L1.11 346.89 L3.65 337.16 L6.76 325.75 L9.91 314.82 L12.81 305.47 L15.37 298.02 L17.61 292.33
								 L19.64 288.02 L21.56 284.7 L23.44 282.16 L25.33 280.32 L27.63 279.71" class="st3"/>
				</g>
				<g id="shape92-92" transform="translate(27.6315,-71.5906)">
					<title>Arkusz.92</title>
					<path d="M27.63 351.3 L26.52 346.89 L23.98 337.16 L20.87 325.75 L17.72 314.82 L14.82 305.47 L12.26 298.02 L10.02
								 292.33 L8 288.02 L6.08 284.7 L4.19 282.16 L2.3 280.32 L0 279.71" class="st3"/>
				</g>
				<g id="shape93-95" transform="translate(55.2629,5.68434E-14)">
					<title>Arkusz.93</title>
					<path d="M0 279.71 L1.11 284.11 L3.65 293.85 L6.76 305.25 L9.91 316.18 L12.81 325.53 L15.37 332.98 L17.61 338.67
								 L19.64 342.99 L21.56 346.3 L23.44 348.84 L25.33 350.68 L27.63 351.3" class="st3"/>
				</g>
				<g id="shape94-98" transform="translate(82.8944,5.68434E-14)">
					<title>Arkusz.94</title>
					<path d="M27.63 279.71 L26.52 284.11 L23.98 293.85 L20.87 305.25 L17.72 316.18 L14.82 325.53 L12.26 332.98 L10.02
								 338.67 L8 342.99 L6.08 346.3 L4.19 348.84 L2.3 350.68 L0 351.3" class="st3"/>
				</g>
			</g>
			<g id="shape120-101" transform="translate(0,-190.908)">
				<title>Arkusz.120</title>
				<path d="M0 351.3 L477.27 351.3" class="st4"/>
			</g>
			<g id="shape121-104" transform="translate(0,-47.7271)">
				<title>Arkusz.121</title>
				<path d="M0 351.3 L477.27 351.3" class="st4"/>
			</g>
		</g>
	</g>
</svg>
