  0
SECTION
  2
HEADER
  9
$ACADVER
  1
AC1014
  9
$ACADMAINTVER
 70
     0
  9
$DWGCODEPAGE
  3
ANSI_1250
  9
$INSBASE
 10
0.0
 20
0.0
 30
0.0
  9
$EXTMIN
 10
0.0
 20
0.0
 30
0.0
  9
$EXTMAX
 10
180.0
 20
92.0
 30
0.0
  9
$LIMMIN
 10
0.0
 20
0.0
  9
$LIMMAX
 10
12.0
 20
9.0
  9
$ORTHOMODE
 70
     0
  9
$REGENMODE
 70
     1
  9
$FILLMODE
 70
     0
  9
$QTEXTMODE
 70
     0
  9
$MIRRTEXT
 70
     1
  9
$DRAGMODE
 70
     2
  9
$LTSCALE
 40
1.8
  9
$OSMODE
 70
    37
  9
$ATTMODE
 70
     1
  9
$TEXTSIZE
 40
0.2
  9
$TRACEWID
 40
0.05
  9
$TEXTSTYLE
  7
STANDARD
  9
$CLAYER
  8
0
  9
$CELTYPE
  6
BYLAYER
  9
$CECOLOR
 62
   256
  9
$CELTSCALE
 40
1.0
  9
$DELOBJ
 70
     1
  9
$DISPSILH
 70
     0
  9
$DIMSCALE
 40
1.0
  9
$DIMASZ
 40
0.18
  9
$DIMEXO
 40
0.0625
  9
$DIMDLI
 40
0.38
  9
$DIMRND
 40
0.0
  9
$DIMDLE
 40
0.0
  9
$DIMEXE
 40
0.18
  9
$DIMTP
 40
0.0
  9
$DIMTM
 40
0.0
  9
$DIMTXT
 40
0.18
  9
$DIMCEN
 40
0.09
  9
$DIMTSZ
 40
0.0
  9
$DIMTOL
 70
     0
  9
$DIMLIM
 70
     0
  9
$DIMTIH
 70
     0
  9
$DIMTOH
 70
     0
  9
$DIMSE1
 70
     0
  9
$DIMSE2
 70
     0
  9
$DIMTAD
 70
     1
  9
$DIMZIN
 70
     0
  9
$DIMBLK
  1

  9
$DIMASO
 70
     1
  9
$DIMSHO
 70
     1
  9
$DIMPOST
  1

  9
$DIMAPOST
  1

  9
$DIMALT
 70
     0
  9
$DIMALTD
 70
     2
  9
$DIMALTF
 40
25.4
  9
$DIMLFAC
 40
1.0
  9
$DIMTOFL
 70
     0
  9
$DIMTVP
 40
0.0
  9
$DIMTIX
 70
     0
  9
$DIMSOXD
 70
     0
  9
$DIMSAH
 70
     0
  9
$DIMBLK1
  1

  9
$DIMBLK2
  1

  9
$DIMSTYLE
  2
STANDARD
  9
$DIMCLRD
 70
     0
  9
$DIMCLRE
 70
     0
  9
$DIMCLRT
 70
     0
  9
$DIMTFAC
 40
1.0
  9
$DIMGAP
 40
0.09
  9
$DIMJUST
 70
     0
  9
$DIMSD1
 70
     0
  9
$DIMSD2
 70
     0
  9
$DIMTOLJ
 70
     1
  9
$DIMTZIN
 70
     0
  9
$DIMALTZ
 70
     0
  9
$DIMALTTZ
 70
     0
  9
$DIMFIT
 70
     5
  9
$DIMUPT
 70
     0
  9
$DIMUNIT
 70
     2
  9
$DIMDEC
 70
     2
  9
$DIMTDEC
 70
     4
  9
$DIMALTU
 70
     2
  9
$DIMALTTD
 70
     2
  9
$DIMTXSTY
  7
STANDARD
  9
$DIMAUNIT
 70
     0
  9
$LUNITS
 70
     2
  9
$LUPREC
 70
     4
  9
$SKETCHINC
 40
0.1
  9
$FILLETRAD
 40
0.5
  9
$AUNITS
 70
     0
  9
$AUPREC
 70
     0
  9
$MENU
  1
.
  9
$ELEVATION
 40
0.0
  9
$PELEVATION
 40
0.0
  9
$THICKNESS
 40
0.0
  9
$LIMCHECK
 70
     0
  9
$BLIPMODE
 70
     0
  9
$CHAMFERA
 40
0.5
  9
$CHAMFERB
 40
0.5
  9
$CHAMFERC
 40
1.0
  9
$CHAMFERD
 40
0.0
  9
$SKPOLY
 70
     0
  9
$TDCREATE
 40
2450772.666465926
  9
$TDUPDATE
 40
2458257.966759259
  9
$TDINDWG
 40
0.0011564931
  9
$TDUSRTIMER
 40
0.0011564931
  9
$USRTIMER
 70
     1
  9
$ANGBASE
 50
0.0
  9
$ANGDIR
 70
     0
  9
$PDMODE
 70
     0
  9
$PDSIZE
 40
0.0
  9
$PLINEWID
 40
0.0
  9
$COORDS
 70
     1
  9
$SPLFRAME
 70
     0
  9
$SPLINETYPE
 70
     6
  9
$SPLINESEGS
 70
     8
  9
$ATTDIA
 70
     0
  9
$ATTREQ
 70
     1
  9
$HANDLING
 70
     1
  9
$HANDSEED
  5
128
  9
$SURFTAB1
 70
     6
  9
$SURFTAB2
 70
     6
  9
$SURFTYPE
 70
     6
  9
$SURFU
 70
     6
  9
$SURFV
 70
     6
  9
$UCSNAME
  2

  9
$UCSORG
 10
0.0
 20
0.0
 30
0.0
  9
$UCSXDIR
 10
1.0
 20
0.0
 30
0.0
  9
$UCSYDIR
 10
0.0
 20
1.0
 30
0.0
  9
$PUCSNAME
  2

  9
$PUCSORG
 10
0.0
 20
0.0
 30
0.0
  9
$PUCSXDIR
 10
1.0
 20
0.0
 30
0.0
  9
$PUCSYDIR
 10
0.0
 20
1.0
 30
0.0
  9
$USERI1
 70
     0
  9
$USERI2
 70
     0
  9
$USERI3
 70
     0
  9
$USERI4
 70
     0
  9
$USERI5
 70
     0
  9
$USERR1
 40
0.0
  9
$USERR2
 40
0.0
  9
$USERR3
 40
0.0
  9
$USERR4
 40
0.0
  9
$USERR5
 40
0.0
  9
$WORLDVIEW
 70
     1
  9
$SHADEDGE
 70
     3
  9
$SHADEDIF
 70
    70
  9
$TILEMODE
 70
     1
  9
$MAXACTVP
 70
    48
  9
$PINSBASE
 10
0.0
 20
0.0
 30
0.0
  9
$PLIMCHECK
 70
     0
  9
$PEXTMIN
 10
0.0
 20
0.0
 30
0.0
  9
$PEXTMAX
 10
0.0
 20
0.0
 30
0.0
  9
$PLIMMIN
 10
0.0
 20
0.0
  9
$PLIMMAX
 10
12.0
 20
9.0
  9
$UNITMODE
 70
     0
  9
$VISRETAIN
 70
     1
  9
$PLINEGEN
 70
     0
  9
$PSLTSCALE
 70
     1
  9
$TREEDEPTH
 70
  3020
  9
$PICKSTYLE
 70
     1
  9
$CMLSTYLE
  2
STANDARD
  9
$CMLJUST
 70
     0
  9
$CMLSCALE
 40
1.0
  9
$PROXYGRAPHICS
 70
     1
  9
$MEASUREMENT
 70
     0
  0
ENDSEC
  0
SECTION
  2
CLASSES
  0
CLASS
  1
LWPOLYLINE
  2
AcDbPolyline
  3
ObjectDBX Classes
 90
       20
280
     0
281
     1
  0
CLASS
  1
IMAGE
  2
AcDbRasterImage
  3
ISM
 90
       21
280
     0
281
     1
  0
CLASS
  1
OLE2FRAME
  2
AcDbOle2Frame
  3
ObjectDBX Classes
 90
       21
280
     0
281
     1
  0
CLASS
  1
HATCH
  2
AcDbHatch
  3
ObjectDBX Classes
 90
       20
280
     0
281
     1
  0
CLASS
  1
DICTIONARYVAR
  2
AcDbDictionaryVar
  3
ObjectDBX Classes
 90
       20
280
     0
281
     0
  0
CLASS
  1
RASTERVARIABLES
  2
AcDbRasterVariables
  3
ISM
 90
       21
280
     0
281
     0
  0
CLASS
  1
IMAGEDEF
  2
AcDbRasterImageDef
  3
ISM
 90
       21
280
     0
281
     0
  0
CLASS
  1
IMAGEDEF_REACTOR
  2
AcDbRasterImageDefReactor
  3
ISM
 90
       21
280
     0
281
     0
  0
CLASS
  1
IDBUFFER
  2
AcDbIdBuffer
  3
ObjectDBX Classes
 90
       20
280
     0
281
     0
  0
CLASS
  1
SPATIAL_FILTER
  2
AcDbSpatialFilter
  3
ObjectDBX Classes
 90
       20
280
     0
281
     0
  0
CLASS
  1
XRECORD
  2
AcDbXrecord
  3
ObjectDBX Classes
 90
       21
280
     0
281
     0
  0
CLASS
  1
ACDBDICTIONARYWDFLT
  2
AcDbDictionaryWithDefault
  3
ObjectDBX Classes
 90
       22
280
     0
281
     0
  0
CLASS
  1
SCALE
  2
AcDbScale
  3
ObjectDBX Classes
 90
       27
280
     0
281
     0
  0
CLASS
  1
VISUALSTYLE
  2
AcDbVisualStyle
  3
ObjectDBX Classes
 90
       26
280
     0
281
     0
  0
CLASS
  1
MATERIAL
  2
AcDbMaterial
  3
ObjectDBX Classes
 90
       23
280
     0
281
     0
  0
CLASS
  1
TABLESTYLE
  2
AcDbTableStyle
  3
ObjectDBX Classes
 90
       25
280
     0
281
     0
  0
CLASS
  1
MLEADERSTYLE
  2
AcDbMLeaderStyle
  3
ACDB_MLEADERSTYLE_CLASS
 90
       27
280
     0
281
     0
  0
CLASS
  1
SORTENTSTABLE
  2
AcDbSortentsTable
  3
"AutoCAD"
 90
        0
280
     0
281
     0
  0
CLASS
  1
LAYER_INDEX
  2
AcDbLayerIndex
  3
"Acad"
 90
        0
280
     0
281
     0
  0
CLASS
  1
SPATIAL_INDEX
  2
AcDbSpatialIndex
  3
"Acad"
 90
        0
280
     0
281
     0
  0
CLASS
  1
OBJECT_PTR
  2
CAseDLPNTableRecord
  3
"ASE-LPNTableRecord"
 90
        1
280
     0
281
     0
  0
CLASS
  1
LAYOUT
  2
AcDbLayout
  3
"AutoCAD 2000"
 90
        1
280
     0
281
     0
  0
CLASS
  1
PLOTSETTINGS
  2
AcDbPlotsettings
  3
"AutoCAD 2000"
 90
        1
280
     0
281
     0
  0
CLASS
  1
ACDBPLACEHOLDER
  2
AcDbPlaceholder
  3
"AutoCAD 2000"
 90
        1
280
     0
281
     0
  0
CLASS
  1
VBA_PROJECT
  2
AcDbVbaProject
  3
"AutoCAD 2000"
 90
        1
280
     0
281
     0
  0
CLASS
  1
WIPEOUT
  2
AcDbWipeout
  3
"AutoCAD 2000"
 90
        1
280
     0
281
     1
  0
CLASS
  1
WIPEOUTVARIABLES
  2
AcDbWipeoutVariables
  3
"AutoCAD 2000"
 90
        1
280
     0
281
     0
  0
CLASS
  1
RTEXT
  2
RText
  3
RText|AutoCAD Express Tool|expresstools@autodesk.com
 90
        1
280
     0
281
     1
  0
CLASS
  1
ARCALIGNEDTEXT
  2
AcDbArcAlignedText
  3
RText|AutoCAD Express Tool|expresstools@autodesk.com
 90
        1
280
     0
281
     1
  0
ENDSEC
  0
SECTION
  2
TABLES
  0
TABLE
  2
VPORT
  5
8
100
AcDbSymbolTable
 70
     1
  0
VPORT
  5
25
100
AcDbSymbolTableRecord
100
AcDbViewportTableRecord
  2
*ACTIVE
 70
     0
 10
0.0
 20
0.0
 11
1.0
 21
1.0
 12
90.0
 22
46.0
 13
0.0
 23
0.0
 14
0.5
 24
0.5
 15
0.5
 25
0.5
 16
0.0
 26
0.0
 36
1.0
 17
0.0
 27
0.0
 37
0.0
 40
92.0
 41
1.956522
 42
50.0
 43
0.0
 44
0.0
 50
0.0
 51
0.0
 71
     0
 72
   100
 73
     1
 74
     1
 75
     0
 76
     0
 77
     0
 78
     0
  0
ENDTAB
  0
TABLE
  2
LTYPE
  5
5
100
AcDbSymbolTable
 70
     4
  0
LTYPE
  5
12
100
AcDbSymbolTableRecord
100
AcDbLinetypeTableRecord
  2
BYBLOCK
 70
     0
  3

 72
    65
 73
     0
 40
0.0
  0
LTYPE
  5
13
100
AcDbSymbolTableRecord
100
AcDbLinetypeTableRecord
  2
BYLAYER
 70
     0
  3

 72
    65
 73
     0
 40
0.0
  0
LTYPE
  5
14
100
AcDbSymbolTableRecord
100
AcDbLinetypeTableRecord
  2
CONTINUOUS
 70
     0
  3
Solid line
 72
    65
 73
     0
 40
0.0
  0
LTYPE
  5
9B
100
AcDbSymbolTableRecord
100
AcDbLinetypeTableRecord
  2
DASHED
 70
     0
  3
DASHED
 72
    65
 73
     2
 40
0.75
 49
0.5
 74
     0
 49
-0.25
 74
     0
  0
ENDTAB
  0
TABLE
  2
LAYER
  5
2
100
AcDbSymbolTable
 70
     1
  0
LAYER
  5
E
100
AcDbSymbolTableRecord
100
AcDbLayerTableRecord
  2
0
 70
     0
 62
     7
  6
CONTINUOUS
  0
ENDTAB
  0
TABLE
  2
STYLE
  5
3
100
AcDbSymbolTable
 70
     1
  0
STYLE
  5
F
100
AcDbSymbolTableRecord
100
AcDbTextStyleTableRecord
  2
STANDARD
 70
     0
 40
0.0
 41
1.0
 50
0.0
 71
     0
 42
0.2
  3
txt.shx
  4

  0
ENDTAB
  0
TABLE
  2
VIEW
  5
6
100
AcDbSymbolTable
 70
     0
  0
ENDTAB
  0
TABLE
  2
UCS
  5
7
100
AcDbSymbolTable
 70
     0
  0
ENDTAB
  0
TABLE
  2
APPID
  5
9
100
AcDbSymbolTable
 70
     1
  0
APPID
  5
10
100
AcDbSymbolTableRecord
100
AcDbRegAppTableRecord
  2
ACAD
 70
     0
  0
ENDTAB
  0
TABLE
  2
DIMSTYLE
  5
A
100
AcDbSymbolTable
 70
     1
  0
DIMSTYLE
105
1D
100
AcDbSymbolTableRecord
100
AcDbDimStyleTableRecord
  2
STANDARD
 70
     0
  3

  4

  5

  6

  7

 40
1.0
 41
0.18
 42
0.0625
 43
0.38
 44
0.18
 45
0.0
 46
0.0
 47
0.0
 48
0.0
 71
     0
 72
     0
 73
     1
 74
     1
 75
     0
 76
     0
 77
     0
 78
     0
140
0.18
141
0.09
142
0.0
143
25.4
144
1.0
145
0.0
146
1.0
147
0.09
170
     0
171
     2
172
     0
173
     0
174
     0
175
     0
176
     0
177
     0
178
     0
270
     2
271
     4
272
     4
273
     2
274
     2
275
     0
280
     0
281
     0
282
     0
283
     1
284
     0
285
     0
286
     0
287
     3
288
     0
340
F
  0
ENDTAB
  0
TABLE
  2
BLOCK_RECORD
  5
1
100
AcDbSymbolTable
 70
     3
  0
BLOCK_RECORD
  5
18
100
AcDbSymbolTableRecord
100
AcDbBlockTableRecord
  2
*MODEL_SPACE
  0
BLOCK_RECORD
  5
15
100
AcDbSymbolTableRecord
100
AcDbBlockTableRecord
  2
*PAPER_SPACE
  0
BLOCK_RECORD
  5
9E
100
AcDbSymbolTableRecord
100
AcDbBlockTableRecord
  2
SINE_FUNCTION__X-AXIS_STRETCH_
  0
BLOCK_RECORD
  5
D4
100
AcDbSymbolTableRecord
100
AcDbBlockTableRecord
  2
SINE_FUNCTION
  0
BLOCK_RECORD
  5
F7
100
AcDbSymbolTableRecord
100
AcDbBlockTableRecord
  2
SINE_FUNCTION__MULTIPLE_PERIODS
  0
ENDTAB
  0
ENDSEC
  0
SECTION
  2
BLOCKS
  0
BLOCK
  5
19
100
AcDbEntity
  8
0
100
AcDbBlockBegin
  2
*MODEL_SPACE
 70
     0
 10
0.0
 20
0.0
 30
0.0
  3
*MODEL_SPACE
  1

  0
ENDBLK
  5
1A
100
AcDbEntity
  8
0
100
AcDbBlockEnd
  0
BLOCK
  5
16
100
AcDbEntity
 67
     1
  8
0
100
AcDbBlockBegin
  2
*PAPER_SPACE
 70
     0
 10
0.0
 20
0.0
 30
0.0
  3
*PAPER_SPACE
  1

  0
ENDBLK
  5
17
100
AcDbEntity
 67
     1
  8
0
100
AcDbBlockEnd
  0
BLOCK
  5
9F
100
AcDbEntity
  8
0
100
AcDbBlockBegin
  2
SINE_FUNCTION__X-AXIS_STRETCH_
 70
     0
 10
0.0
 20
0.0
 30
0.0
  3
SINE_FUNCTION__X-AXIS_STRETCH_
  1

  0
LINE
  5
A0
100
AcDbEntity
  8
0
  6
CONTINUOUS
 62
     7
100
AcDbLine
 10
-0.082895
 20
25.0
 30
0.0
 11
106.917105
 21
25.0
 31
0.0
  0
LINE
  5
A1
100
AcDbEntity
  8
0
  6
CONTINUOUS
 62
     7
100
AcDbLine
 10
5.267105
 20
0.0
 30
0.0
 11
5.267105
 21
50.0
 31
0.0
  0
SPLINE
  5
A2
100
AcDbEntity
  8
0
  6
CONTINUOUS
 62
    10
100
AcDbSpline
210
0.0
220
0.0
230
1.0
 70
     8
 71
     9
 72
    20
 73
    10
 74
     0
 42
0.0000001
 43
0.0000001
 40
0.0
 40
0.0
 40
0.0
 40
0.0
 40
0.0
 40
0.0
 40
0.0
 40
0.0
 40
0.0
 40
0.0
 40
1.0
 40
1.0
 40
1.0
 40
1.0
 40
1.0
 40
1.0
 40
1.0
 40
1.0
 40
1.0
 40
1.0
 10
5.2671052631579043
 20
25.0000000000000036
 30
0.0
 10
5.2671052631579043
 20
25.0000000000000036
 30
0.0
 10
7.2733552631579048
 20
28.8822856765378226
 30
0.0
 10
9.2796052631579045
 20
32.5000000000000213
 30
0.0
 10
11.2858552631579023
 20
35.6066017177982417
 30
0.0
 10
12.288980263157903
 20
36.9003001043685543
 30
0.0
 10
13.2921052631579037
 20
37.9903810567666014
 30
0.0
 10
14.2952302631579062
 20
38.8581929876693124
 30
0.0
 10
15.2983552631579034
 20
39.4888873943360466
 30
0.0
 10
16.3014802631579023
 20
39.8716729206071676
 30
0.0
  0
LINE
  5
A3
100
AcDbEntity
  8
0
  6
CONTINUOUS
 62
    10
100
AcDbLine
 10
16.30148
 20
39.871673
 30
0.0
 11
17.304605
 21
40.0
 31
0.0
  0
SPLINE
  5
A4
100
AcDbEntity
  8
0
  6
CONTINUOUS
 62
    10
100
AcDbSpline
210
0.0
220
0.0
230
1.0
 70
     8
 71
     9
 72
    20
 73
    10
 74
     0
 42
0.0000001
 43
0.0000001
 40
0.0
 40
0.0
 40
0.0
 40
0.0
 40
0.0
 40
0.0
 40
0.0
 40
0.0
 40
0.0
 40
0.0
 40
1.0
 40
1.0
 40
1.0
 40
1.0
 40
1.0
 40
1.0
 40
1.0
 40
1.0
 40
1.0
 40
1.0
 10
29.342105263157908
 20
24.9999999999999005
 30
0.0
 10
29.342105263157908
 20
24.9999999999999005
 30
0.0
 10
27.335855263157903
 20
28.8822856765377232
 30
0.0
 10
25.3296052631579052
 20
32.4999999999999289
 30
0.0
 10
23.3233552631579037
 20
35.6066017177981564
 30
0.0
 10
22.320230263157903
 20
36.9003001043684904
 30
0.0
 10
21.3171052631579023
 20
37.9903810567665445
 30
0.0
 10
20.3139802631579052
 20
38.858192987669284
 30
0.0
 10
19.3108552631579045
 20
39.488887394336011
 30
0.0
 10
18.3077302631579037
 20
39.8716729206071534
 30
0.0
  0
LINE
  5
A5
100
AcDbEntity
  8
0
  6
CONTINUOUS
 62
    10
100
AcDbLine
 10
18.30773
 20
39.871673
 30
0.0
 11
17.304605
 21
40.0
 31
0.0
  0
SPLINE
  5
A6
100
AcDbEntity
  8
0
  6
CONTINUOUS
 62
    10
100
AcDbSpline
210
0.0
220
0.0
230
1.0
 70
     8
 71
     9
 72
    20
 73
    10
 74
     0
 42
0.0000001
 43
0.0000001
 40
0.0
 40
0.0
 40
0.0
 40
0.0
 40
0.0
 40
0.0
 40
0.0
 40
0.0
 40
0.0
 40
0.0
 40
1.0
 40
1.0
 40
1.0
 40
1.0
 40
1.0
 40
1.0
 40
1.0
 40
1.0
 40
1.0
 40
1.0
 10
29.3421052631578974
 20
24.9999999999999076
 30
0.0
 10
29.3421052631578974
 20
24.9999999999999076
 30
0.0
 10
31.3483552631578917
 20
21.1177143234620956
 30
0.0
 10
33.3546052631579002
 20
17.4999999999999005
 30
0.0
 10
35.3608552631578945
 20
14.3933982822017068
 30
0.0
 10
36.3639802631578917
 20
13.0996998956313977
 30
0.0
 10
37.3671052631578888
 20
12.0096189432333631
 30
0.0
 10
38.3702302631578931
 20
11.1418070123306538
 30
0.0
 10
39.3733552631578974
 20
10.5111126056639499
 30
0.0
 10
40.3764802631578945
 20
10.1283270793928377
 30
0.0
  0
LINE
  5
A7
100
AcDbEntity
  8
0
  6
CONTINUOUS
 62
    10
100
AcDbLine
 10
40.37648
 20
10.128327
 30
0.0
 11
41.379605
 21
10.0
 31
0.0
  0
SPLINE
  5
A8
100
AcDbEntity
  8
0
  6
CONTINUOUS
 62
    10
100
AcDbSpline
210
0.0
220
0.0
230
1.0
 70
     8
 71
     9
 72
    20
 73
    10
 74
     0
 42
0.0000001
 43
0.0000001
 40
0.0
 40
0.0
 40
0.0
 40
0.0
 40
0.0
 40
0.0
 40
0.0
 40
0.0
 40
0.0
 40
0.0
 40
1.0
 40
1.0
 40
1.0
 40
1.0
 40
1.0
 40
1.0
 40
1.0
 40
1.0
 40
1.0
 40
1.0
 10
53.4171052631579002
 20
25.0000000000002203
 30
0.0
 10
53.4171052631579002
 20
25.0000000000002203
 30
0.0
 10
51.4108552631578988
 20
21.1177143234623941
 30
0.0
 10
49.4046052631579045
 20
17.5000000000001776
 30
0.0
 10
47.3983552631578959
 20
14.3933982822019289
 30
0.0
 10
46.3952302631578988
 20
13.0996998956315895
 30
0.0
 10
45.3921052631579016
 20
12.0096189432335212
 30
0.0
 10
44.3889802631579045
 20
11.1418070123307729
 30
0.0
 10
43.3858552631579073
 20
10.5111126056640316
 30
0.0
 10
42.3827302631578959
 20
10.1283270793928786
 30
0.0
  0
LINE
  5
A9
100
AcDbEntity
  8
0
  6
CONTINUOUS
 62
    10
100
AcDbLine
 10
42.38273
 20
10.128327
 30
0.0
 11
41.379605
 21
10.0
 31
0.0
  0
MTEXT
  5
AA
100
AcDbEntity
  8
0
100
AcDbMText
 10
45.98849
 20
42.0
 30
0.0
 40
2.201416
 41
81.442769
 71
     5
 72
     5
  1
\C7;\fTimes New Roman|b0|i0|;\H2.201416015625;0,5912
  0
SPLINE
  5
AB
100
AcDbEntity
  8
0
  6
CONTINUOUS
 62
     5
100
AcDbSpline
210
0.0
220
0.0
230
1.0
 70
     8
 71
     9
 72
    20
 73
    10
 74
     0
 42
0.0000001
 43
0.0000001
 40
0.0
 40
0.0
 40
0.0
 40
0.0
 40
0.0
 40
0.0
 40
0.0
 40
0.0
 40
0.0
 40
0.0
 40
1.0
 40
1.0
 40
1.0
 40
1.0
 40
1.0
 40
1.0
 40
1.0
 40
1.0
 40
1.0
 40
1.0
 10
5.2671052631579123
 20
25.0000000000000036
 30
0.0
 10
5.2671052631579123
 20
25.0000000000000036
 30
0.0
 10
8.660553978580193
 20
28.8822856765378226
 30
0.0
 10
12.0540026940024703
 20
32.5000000000000213
 30
0.0
 10
15.4474514094247546
 20
35.6066017177982417
 30
0.0
 10
17.144175767135895
 20
36.9003001043685543
 30
0.0
 10
18.8409001248470318
 20
37.9903810567666014
 30
0.0
 10
20.5376244825581722
 20
38.8581929876693124
 30
0.0
 10
22.2343488402693126
 20
39.4888873943360466
 30
0.0
 10
23.931073197980453
 20
39.8716729206071676
 30
0.0
  0
LINE
  5
AC
100
AcDbEntity
  8
0
  6
CONTINUOUS
 62
     5
100
AcDbLine
 10
23.931073
 20
39.871673
 30
0.0
 11
25.627798
 21
40.0
 31
0.0
  0
SPLINE
  5
AD
100
AcDbEntity
  8
0
  6
CONTINUOUS
 62
     5
100
AcDbSpline
210
0.0
220
0.0
230
1.0
 70
     8
 71
     9
 72
    20
 73
    10
 74
     0
 42
0.0000001
 43
0.0000001
 40
0.0
 40
0.0
 40
0.0
 40
0.0
 40
0.0
 40
0.0
 40
0.0
 40
0.0
 40
0.0
 40
0.0
 40
1.0
 40
1.0
 40
1.0
 40
1.0
 40
1.0
 40
1.0
 40
1.0
 40
1.0
 40
1.0
 40
1.0
 10
45.9884898482252709
 20
24.9999999999999005
 30
0.0
 10
45.9884898482252709
 20
24.9999999999999005
 30
0.0
 10
42.5950411328029901
 20
28.8822856765377232
 30
0.0
 10
39.2015924173807093
 20
32.4999999999999289
 30
0.0
 10
35.8081437019584357
 20
35.6066017177981564
 30
0.0
 10
34.1114193442472953
 20
36.9003001043684904
 30
0.0
 10
32.4146949865361549
 20
37.9903810567665445
 30
0.0
 10
30.7179706288250109
 20
38.858192987669284
 30
0.0
 10
29.0212462711138706
 20
39.488887394336011
 30
0.0
 10
27.3245219134027337
 20
39.8716729206071534
 30
0.0
  0
LINE
  5
AE
100
AcDbEntity
  8
0
  6
CONTINUOUS
 62
     5
100
AcDbLine
 10
27.324522
 20
39.871673
 30
0.0
 11
25.627798
 21
40.0
 31
0.0
  0
SPLINE
  5
AF
100
AcDbEntity
  8
0
  6
CONTINUOUS
 62
     5
100
AcDbSpline
210
0.0
220
0.0
230
1.0
 70
     8
 71
     9
 72
    20
 73
    10
 74
     0
 42
0.0000001
 43
0.0000001
 40
0.0
 40
0.0
 40
0.0
 40
0.0
 40
0.0
 40
0.0
 40
0.0
 40
0.0
 40
0.0
 40
0.0
 40
1.0
 40
1.0
 40
1.0
 40
1.0
 40
1.0
 40
1.0
 40
1.0
 40
1.0
 40
1.0
 40
1.0
 10
45.9884898482252638
 20
24.9999999999999076
 30
0.0
 10
45.9884898482252638
 20
24.9999999999999076
 30
0.0
 10
49.3819385636475516
 20
21.1177143234620956
 30
0.0
 10
52.7753872790698253
 20
17.4999999999999005
 30
0.0
 10
56.1688359944921061
 20
14.3933982822017068
 30
0.0
 10
57.8655603522032465
 20
13.0996998956313977
 30
0.0
 10
59.5622847099143939
 20
12.0096189432333631
 30
0.0
 10
61.2590090676255343
 20
11.1418070123306538
 30
0.0
 10
62.9557334253366747
 20
10.5111126056639499
 30
0.0
 10
64.652457783047808
 20
10.1283270793928377
 30
0.0
  0
LINE
  5
B0
100
AcDbEntity
  8
0
  6
CONTINUOUS
 62
     5
100
AcDbLine
 10
64.652458
 20
10.128327
 30
0.0
 11
66.349182
 21
10.0
 31
0.0
  0
SPLINE
  5
B1
100
AcDbEntity
  8
0
  6
CONTINUOUS
 62
     5
100
AcDbSpline
210
0.0
220
0.0
230
1.0
 70
     8
 71
     9
 72
    20
 73
    10
 74
     0
 42
0.0000001
 43
0.0000001
 40
0.0
 40
0.0
 40
0.0
 40
0.0
 40
0.0
 40
0.0
 40
0.0
 40
0.0
 40
0.0
 40
0.0
 40
1.0
 40
1.0
 40
1.0
 40
1.0
 40
1.0
 40
1.0
 40
1.0
 40
1.0
 40
1.0
 40
1.0
 10
86.7098744332926259
 20
25.0000000000002203
 30
0.0
 10
86.7098744332926259
 20
25.0000000000002203
 30
0.0
 10
83.3164257178703451
 20
21.1177143234623941
 30
0.0
 10
79.9229770024480786
 20
17.5000000000001776
 30
0.0
 10
76.5295282870257978
 20
14.3933982822019289
 30
0.0
 10
74.8328039293146503
 20
13.0996998956315895
 30
0.0
 10
73.136079571603517
 20
12.0096189432335212
 30
0.0
 10
71.4393552138923837
 20
11.1418070123307729
 30
0.0
 10
69.7426308561812363
 20
10.5111126056640316
 30
0.0
 10
68.045906498470103
 20
10.1283270793928786
 30
0.0
  0
LINE
  5
B2
100
AcDbEntity
  8
0
  6
CONTINUOUS
 62
     5
100
AcDbLine
 10
68.045906
 20
10.128327
 30
0.0
 11
66.349182
 21
10.0
 31
0.0
  0
MTEXT
  5
B3
100
AcDbEntity
  8
0
100
AcDbMText
 10
56.466605
 20
7.6225
 30
0.0
 40
3.292847
 41
64.2
 71
     5
 72
     5
  1
\C7;\fCambria Math|b0|i0|;\H3.2928473878652;y=sinx, x\U+220A[0,2\U+03C0]
  0
LINE
  5
B4
100
AcDbEntity
  8
0
  6
CONTINUOUS
 62
     7
100
AcDbLine
 10
5.267105
 20
40.0
 30
0.0
 11
6.337105
 21
40.0
 31
0.0
  0
LINE
  5
B5
100
AcDbEntity
  8
0
  6
CONTINUOUS
 62
     7
100
AcDbLine
 10
5.267105
 20
10.0
 30
0.0
 11
6.337105
 21
10.0
 31
0.0
  0
MTEXT
  5
B6
100
AcDbEntity
  8
0
100
AcDbMText
 10
2.55505
 20
22.415
 30
0.0
 40
3.082006
 41
4.8899
 71
     5
 72
     5
  1
\C7;\fArial|b0|i0|;\H3.0820059355348;O
  0
MTEXT
  5
B7
100
AcDbEntity
  8
0
100
AcDbMText
 10
17.818205
 20
22.0
 30
0.0
 40
3.292847
 41
21.4
 71
     5
 72
     5
  1
\C7;\fCambria Math|b0|i0|;\H3.2928473878652;\U+03C0/2
  0
MTEXT
  5
B8
100
AcDbEntity
  8
0
100
AcDbMText
 10
29.320705
 20
22.0
 30
0.0
 40
3.292847
 41
21.4
 71
     5
 72
     5
  1
\C7;\fCambria Math|b0|i0|;\H3.2928473878652;\U+03C0
  0
MTEXT
  5
B9
100
AcDbEntity
  8
0
100
AcDbMText
 10
41.422405
 20
22.0
 30
0.0
 40
3.292847
 41
21.4
 71
     5
 72
     5
  1
\C7;\fCambria Math|b0|i0|;\H3.2928473878652;3\U+03C0/2
  0
MTEXT
  5
BA
100
AcDbEntity
  8
0
100
AcDbMText
 10
54.754605
 20
22.0
 30
0.0
 40
3.292847
 41
21.4
 71
     5
 72
     5
  1
\C7;\fCambria Math|b0|i0|;\H3.2928473878652;2\U+03C0
  0
LWPOLYLINE
  5
BB
100
AcDbEntity
  8
0
  6
CONTINUOUS
 62
     7
100
AcDbPolyline
 90
        4
 70
     1
 10
-0.082895
 20
36.99
 10
7.364305
 20
36.99
 10
7.364305
 20
43.18
 10
-0.082895
 20
43.18
  0
MTEXT
  5
BC
100
AcDbEntity
  8
0
100
AcDbMText
 10
3.640705
 20
40.085
 30
0.0
 40
3.082006
 41
7.4472
 71
     5
 72
     5
  1
\C7;\fArial|b0|i0|;\H3.0820059355348;1
  0
LWPOLYLINE
  5
BD
100
AcDbEntity
  8
0
  6
CONTINUOUS
 62
     7
100
AcDbPolyline
 90
        4
 70
     1
 10
-1.436445
 20
6.81
 10
6.856055
 20
6.81
 10
6.856055
 20
13.0
 10
-1.436445
 20
13.0
  0
MTEXT
  5
BE
100
AcDbEntity
  8
0
100
AcDbMText
 10
2.709805
 20
9.905
 30
0.0
 40
3.082006
 41
8.2925
 71
     5
 72
     5
  1
\C7;\fArial|b0|i0|;\H3.0820059355348;-1
  0
LWPOLYLINE
  5
BF
100
AcDbEntity
  8
0
  6
CONTINUOUS
 62
     7
100
AcDbPolyline
 90
        4
 70
     1
 10
-1.0
 20
46.3075
 10
6.7468
 20
46.3075
 10
6.7468
 20
50.6925
 10
-1.0
 20
50.6925
  0
MTEXT
  5
C0
100
AcDbEntity
  8
0
100
AcDbMText
 10
2.8734
 20
48.5
 30
0.0
 40
2.568327
 41
7.7468
 71
     5
 72
     5
  1
\C7;\fArial|b0|i0|;\H2.5683265227824;y
  0
LWPOLYLINE
  5
C1
100
AcDbEntity
  8
0
  6
CONTINUOUS
 62
     7
100
AcDbPolyline
 90
        4
 70
     1
 10
102.7608
 20
20.5
 10
108.2392
 20
20.5
 10
108.2392
 20
24.66
 10
102.7608
 20
24.66
  0
MTEXT
  5
C2
100
AcDbEntity
  8
0
100
AcDbMText
 10
105.5
 20
22.58
 30
0.0
 40
2.568327
 41
5.4784
 71
     5
 72
     5
  1
\C7;\fArial|b0|i0|;\H2.5683265227824;x
  0
LINE
  5
C3
100
AcDbEntity
  8
0
  6
CONTINUOUS
 62
     7
100
AcDbLine
 10
17.304605
 20
25.0
 30
0.0
 11
17.304605
 21
26.0
 31
0.0
  0
LINE
  5
C4
100
AcDbEntity
  8
0
  6
CONTINUOUS
 62
     7
100
AcDbLine
 10
41.379605
 20
25.0
 30
0.0
 11
41.379605
 21
26.0
 31
0.0
  0
LWPOLYLINE
  5
C5
100
AcDbEntity
  8
0
  6
CONTINUOUS
 62
     7
100
AcDbPolyline
 90
        4
 70
     1
 10
42.22209
 20
26.3325
 10
49.75489
 20
26.3325
 10
49.75489
 20
31.6675
 10
42.22209
 20
31.6675
  0
MTEXT
  5
C6
100
AcDbEntity
  8
0
100
AcDbMText
 10
45.98849
 20
29.0
 30
0.0
 40
3.082006
 41
7.5328
 71
     5
 72
     5
  1
\C7;\fArial|b0|i0|;\H3.0820059355348;P
  0
MTEXT
  5
C7
100
AcDbEntity
  8
0
100
AcDbMText
 10
35.366245
 20
42.44126
 30
0.0
 40
3.292847
 41
18.73249
 71
     5
 72
     5
  1
\C7;\fCambria Math|b0|i0|;\H3.2928473878652;y=sin(
  0
MTEXT
  5
C8
100
AcDbEntity
  8
0
100
AcDbMText
 10
51.514105
 20
42.3925
 30
0.0
 40
3.292847
 41
8.02821
 71
     5
 72
     5
  1
\C7;\fCambria Math|b0|i0|;\H3.2928473878652;)
  0
LINE
  5
C9
100
AcDbEntity
  8
0
  6
CONTINUOUS
 62
     7
100
AcDbLine
 10
29.342105
 20
25.0
 30
0.0
 11
29.342105
 21
26.0
 31
0.0
  0
LINE
  5
CA
100
AcDbEntity
  8
0
  6
CONTINUOUS
 62
     7
100
AcDbLine
 10
53.417105
 20
25.0
 30
0.0
 11
53.417105
 21
26.0
 31
0.0
  0
LINE
  5
CB
100
AcDbEntity
  8
0
  6
CONTINUOUS
 62
     7
100
AcDbLine
 10
65.454605
 20
25.0
 30
0.0
 11
65.454605
 21
26.0
 31
0.0
  0
LINE
  5
CC
100
AcDbEntity
  8
0
  6
CONTINUOUS
 62
     7
100
AcDbLine
 10
77.492105
 20
25.0
 30
0.0
 11
77.492105
 21
26.0
 31
0.0
  0
LINE
  5
CD
100
AcDbEntity
  8
0
  6
CONTINUOUS
 62
     7
100
AcDbLine
 10
89.529605
 20
25.0
 30
0.0
 11
89.529605
 21
26.0
 31
0.0
  0
LINE
  5
CE
100
AcDbEntity
  8
0
  6
CONTINUOUS
 62
     7
100
AcDbLine
 10
101.567105
 20
25.0
 30
0.0
 11
101.567105
 21
26.0
 31
0.0
  0
MTEXT
  5
CF
100
AcDbEntity
  8
0
100
AcDbMText
 10
65.326205
 20
22.0
 30
0.0
 40
3.292847
 41
21.4
 71
     5
 72
     5
  1
\C7;\fCambria Math|b0|i0|;\H3.2928473878652;5\U+03C0/2
  0
MTEXT
  5
D0
100
AcDbEntity
  8
0
100
AcDbMText
 10
77.492105
 20
22.0
 30
0.0
 40
3.292847
 41
10.7
 71
     5
 72
     5
  1
\C7;\fCambria Math|b0|i0|;\H3.2928473878652;3\U+03C0
  0
MTEXT
  5
D1
100
AcDbEntity
  8
0
100
AcDbMText
 10
101.567105
 20
22.0
 30
0.0
 40
3.292847
 41
10.7
 71
     5
 72
     5
  1
\C7;\fCambria Math|b0|i0|;\H3.2928473878652;4\U+03C0
  0
MTEXT
  5
D2
100
AcDbEntity
  8
0
100
AcDbMText
 10
88.705705
 20
22.0
 30
0.0
 40
3.292847
 41
21.4
 71
     5
 72
     5
  1
\C7;\fCambria Math|b0|i0|;\H3.2928473878652;7\U+03C0/2
  0
ENDBLK
  5
D3
100
AcDbEntity
  8
0
100
AcDbBlockEnd
  0
BLOCK
  5
D5
100
AcDbEntity
  8
0
100
AcDbBlockBegin
  2
SINE_FUNCTION
 70
     0
 10
0.0
 20
0.0
 30
0.0
  3
SINE_FUNCTION
  1

  0
LINE
  5
D6
100
AcDbEntity
  8
0
  6
CONTINUOUS
 62
     7
100
AcDbLine
 10
-0.125
 20
25.0
 30
0.0
 11
79.875
 21
25.0
 31
0.0
  0
LINE
  5
D7
100
AcDbEntity
  8
0
  6
CONTINUOUS
 62
     7
100
AcDbLine
 10
3.875
 20
0.0
 30
0.0
 11
3.875
 21
50.0
 31
0.0
  0
SPLINE
  5
D8
100
AcDbEntity
  8
0
  6
CONTINUOUS
 62
     5
100
AcDbSpline
210
0.0
220
0.0
230
1.0
 70
     8
 71
     9
 72
    20
 73
    10
 74
     0
 42
0.0000001
 43
0.0000001
 40
0.0
 40
0.0
 40
0.0
 40
0.0
 40
0.0
 40
0.0
 40
0.0
 40
0.0
 40
0.0
 40
0.0
 40
1.0
 40
1.0
 40
1.0
 40
1.0
 40
1.0
 40
1.0
 40
1.0
 40
1.0
 40
1.0
 40
1.0
 10
3.8749999999999929
 20
25.0000000000000036
 30
0.0
 10
3.8749999999999929
 20
25.0000000000000036
 30
0.0
 10
6.8749999999999947
 20
30.1763809020504326
 30
0.0
 10
9.8749999999999929
 20
35.0000000000000284
 30
0.0
 10
12.8749999999999929
 20
39.1421356237309865
 30
0.0
 10
14.3749999999999911
 20
40.8670668058247415
 30
0.0
 10
15.8749999999999929
 20
42.3205080756888066
 30
0.0
 10
17.3749999999999929
 20
43.4775906502257641
 30
0.0
 10
18.8749999999999929
 20
44.3185165257813836
 30
0.0
 10
20.3749999999999929
 20
44.8288972274762259
 30
0.0
  0
LINE
  5
D9
100
AcDbEntity
  8
0
  6
CONTINUOUS
 62
     5
100
AcDbLine
 10
20.375
 20
44.828897
 30
0.0
 11
21.875
 21
45.0
 31
0.0
  0
SPLINE
  5
DA
100
AcDbEntity
  8
0
  6
CONTINUOUS
 62
     5
100
AcDbSpline
210
0.0
220
0.0
230
1.0
 70
     8
 71
     9
 72
    20
 73
    10
 74
     0
 42
0.0000001
 43
0.0000001
 40
0.0
 40
0.0
 40
0.0
 40
0.0
 40
0.0
 40
0.0
 40
0.0
 40
0.0
 40
0.0
 40
0.0
 40
1.0
 40
1.0
 40
1.0
 40
1.0
 40
1.0
 40
1.0
 40
1.0
 40
1.0
 40
1.0
 40
1.0
 10
39.8749999999999929
 20
24.999999999999865
 30
0.0
 10
39.8749999999999929
 20
24.999999999999865
 30
0.0
 10
36.8749999999999929
 20
30.1763809020502975
 30
0.0
 10
33.8749999999999929
 20
34.9999999999999005
 30
0.0
 10
30.8749999999999929
 20
39.1421356237308871
 30
0.0
 10
29.3749999999999929
 20
40.8670668058246491
 30
0.0
 10
27.8749999999999929
 20
42.3205080756887284
 30
0.0
 10
26.3749999999999929
 20
43.4775906502257072
 30
0.0
 10
24.8749999999999929
 20
44.318516525781348
 30
0.0
 10
23.3749999999999929
 20
44.8288972274762045
 30
0.0
  0
LINE
  5
DB
100
AcDbEntity
  8
0
  6
CONTINUOUS
 62
     5
100
AcDbLine
 10
23.375
 20
44.828897
 30
0.0
 11
21.875
 21
45.0
 31
0.0
  0
SPLINE
  5
DC
100
AcDbEntity
  8
0
  6
CONTINUOUS
 62
     5
100
AcDbSpline
210
0.0
220
0.0
230
1.0
 70
     8
 71
     9
 72
    20
 73
    10
 74
     0
 42
0.0000001
 43
0.0000001
 40
0.0
 40
0.0
 40
0.0
 40
0.0
 40
0.0
 40
0.0
 40
0.0
 40
0.0
 40
0.0
 40
0.0
 40
1.0
 40
1.0
 40
1.0
 40
1.0
 40
1.0
 40
1.0
 40
1.0
 40
1.0
 40
1.0
 40
1.0
 10
39.875
 20
24.9999999999998685
 30
0.0
 10
39.875
 20
24.9999999999998685
 30
0.0
 10
42.875
 20
19.8236190979494609
 30
0.0
 10
45.875
 20
14.9999999999998597
 30
0.0
 10
48.875
 20
10.8578643762689353
 30
0.0
 10
50.375
 20
9.1329331941751928
 30
0.0
 10
51.875
 20
7.6794919243111455
 30
0.0
 10
53.375
 20
6.5224093497741986
 30
0.0
 10
54.8749999999999929
 20
5.6814834742185933
 30
0.0
 10
56.3749999999999929
 20
5.1711027725237768
 30
0.0
  0
LINE
  5
DD
100
AcDbEntity
  8
0
  6
CONTINUOUS
 62
     5
100
AcDbLine
 10
56.375
 20
5.171103
 30
0.0
 11
57.875
 21
5.0
 31
0.0
  0
SPLINE
  5
DE
100
AcDbEntity
  8
0
  6
CONTINUOUS
 62
     5
100
AcDbSpline
210
0.0
220
0.0
230
1.0
 70
     8
 71
     9
 72
    20
 73
    10
 74
     0
 42
0.0000001
 43
0.0000001
 40
0.0
 40
0.0
 40
0.0
 40
0.0
 40
0.0
 40
0.0
 40
0.0
 40
0.0
 40
0.0
 40
0.0
 40
1.0
 40
1.0
 40
1.0
 40
1.0
 40
1.0
 40
1.0
 40
1.0
 40
1.0
 40
1.0
 40
1.0
 10
75.8749999999999858
 20
25.0000000000002913
 30
0.0
 10
75.8749999999999858
 20
25.0000000000002913
 30
0.0
 10
72.8749999999999858
 20
19.8236190979498552
 30
0.0
 10
69.8749999999999716
 20
15.0000000000002327
 30
0.0
 10
66.8749999999999716
 20
10.8578643762692337
 30
0.0
 10
65.3749999999999716
 20
9.1329331941754468
 30
0.0
 10
63.8749999999999787
 20
7.6794919243113542
 30
0.0
 10
62.3749999999999787
 20
6.5224093497743585
 30
0.0
 10
60.8749999999999858
 20
5.6814834742187017
 30
0.0
 10
59.3749999999999645
 20
5.1711027725238319
 30
0.0
  0
LINE
  5
DF
100
AcDbEntity
  8
0
  6
CONTINUOUS
 62
     5
100
AcDbLine
 10
59.375
 20
5.171103
 30
0.0
 11
57.875
 21
5.0
 31
0.0
  0
MTEXT
  5
E0
100
AcDbEntity
  8
0
100
AcDbMText
 10
31.379
 20
47.4
 30
0.0
 40
3.292847
 41
40.0
 71
     5
 72
     5
  1
\C7;\fCambria Math|b0|i0|;\H3.2928473878652;y=sinx, x\U+220A[0,2\U+03C0]
  0
MTEXT
  5
E1
100
AcDbEntity
  8
0
100
AcDbMText
 10
32.091
 20
2.58
 30
0.0
 40
3.292847
 41
40.0
 71
     5
 72
     5
  1
\C7;\fCambria Math|b0|i0|;\H3.2928473878652;y=-sinx, x\U+220A[0,2\U+03C0]
  0
LINE
  5
E2
100
AcDbEntity
  8
0
  6
CONTINUOUS
 62
     7
100
AcDbLine
 10
21.875
 20
25.0
 30
0.0
 11
21.875
 21
26.0
 31
0.0
  0
LINE
  5
E3
100
AcDbEntity
  8
0
  6
CONTINUOUS
 62
     7
100
AcDbLine
 10
57.875
 20
25.0
 30
0.0
 11
57.875
 21
26.0
 31
0.0
  0
LINE
  5
E4
100
AcDbEntity
  8
0
  6
CONTINUOUS
 62
     7
100
AcDbLine
 10
39.875
 20
25.0
 30
0.0
 11
39.875
 21
26.0
 31
0.0
  0
LINE
  5
E5
100
AcDbEntity
  8
0
  6
CONTINUOUS
 62
     7
100
AcDbLine
 10
75.875
 20
25.0
 30
0.0
 11
75.875
 21
26.0
 31
0.0
  0
LINE
  5
E6
100
AcDbEntity
  8
0
  6
CONTINUOUS
 62
     7
100
AcDbLine
 10
5.475
 20
45.0
 30
0.0
 11
3.875
 21
45.0
 31
0.0
  0
LINE
  5
E7
100
AcDbEntity
  8
0
  6
CONTINUOUS
 62
     7
100
AcDbLine
 10
3.875
 20
5.0
 30
0.0
 11
5.475
 21
5.0
 31
0.0
  0
LWPOLYLINE
  5
E8
100
AcDbEntity
  8
0
  6
CONTINUOUS
 62
     7
100
AcDbPolyline
 90
        4
 70
     1
 10
-1.184564
 20
18.31774
 10
4.184564
 20
18.31774
 10
4.184564
 20
26.68226
 10
-1.184564
 20
26.68226
  0
MTEXT
  5
E9
100
AcDbEntity
  8
0
100
AcDbMText
 10
1.5
 20
22.5
 30
0.0
 40
3.082006
 41
5.369128
 71
     5
 72
     5
  1
\C7;\fArial|b0|i0|;\H3.0820059355348;O
  0
LWPOLYLINE
  5
EA
100
AcDbEntity
  8
0
  6
CONTINUOUS
 62
     7
100
AcDbPolyline
 90
        4
 70
     1
 10
0.082551
 20
40.608487
 10
5.248845
 20
40.608487
 10
5.248845
 20
48.973007
 10
0.082551
 20
48.973007
  0
MTEXT
  5
EB
100
AcDbEntity
  8
0
100
AcDbMText
 10
2.665698
 20
44.790747
 30
0.0
 40
3.082006
 41
5.166294
 71
     5
 72
     5
  1
\C7;\fArial|b0|i0|;\H3.0820059355348;1
  0
LWPOLYLINE
  5
EC
100
AcDbEntity
  8
0
  6
CONTINUOUS
 62
     7
100
AcDbPolyline
 90
        4
 70
     1
 10
-6.5
 20
0.208058
 10
9.5
 20
0.208058
 10
9.5
 20
8.572577
 10
-6.5
 20
8.572577
  0
MTEXT
  5
ED
100
AcDbEntity
  8
0
100
AcDbMText
 10
1.5
 20
4.390317
 30
0.0
 40
3.082006
 41
16.0
 71
     5
 72
     5
  1
\C7;\fArial|b0|i0|;\H3.0820059355348;-1
  0
MTEXT
  5
EE
100
AcDbEntity
  8
0
100
AcDbMText
 10
21.827
 20
22.5
 30
0.0
 40
3.292847
 41
16.0
 71
     5
 72
     5
  1
\C7;\fCambria Math|b0|i0|;\H3.2928473878652;\U+03C0/2
  0
MTEXT
  5
EF
100
AcDbEntity
  8
0
100
AcDbMText
 10
39.923
 20
22.5
 30
0.0
 40
3.292847
 41
8.0
 71
     5
 72
     5
  1
\C7;\fCambria Math|b0|i0|;\H3.2928473878652;\U+03C0
  0
MTEXT
  5
F0
100
AcDbEntity
  8
0
100
AcDbMText
 10
75.875
 20
22.5
 30
0.0
 40
3.292847
 41
8.0
 71
     5
 72
     5
  1
\C7;\fCambria Math|b0|i0|;\H3.2928473878652;2\U+03C0
  0
MTEXT
  5
F1
100
AcDbEntity
  8
0
100
AcDbMText
 10
57.859
 20
22.5
 30
0.0
 40
3.292847
 41
16.0
 71
     5
 72
     5
  1
\C7;\fCambria Math|b0|i0|;\H3.2928473878652;3\U+03C0/2
  0
LWPOLYLINE
  5
F2
100
AcDbEntity
  8
0
  6
CONTINUOUS
 62
     7
100
AcDbPolyline
 90
        4
 70
     1
 10
5.025617
 20
45.542037
 10
8.247093
 20
45.542037
 10
8.247093
 20
50.34999
 10
5.025617
 20
50.34999
  0
MTEXT
  5
F3
100
AcDbEntity
  8
0
100
AcDbMText
 10
6.636355
 20
47.946013
 30
0.0
 40
2.568327
 41
3.221477
 71
     5
 72
     5
  1
\C7;\fArial|b0|i0|;\H2.5683265227824;y
  0
LWPOLYLINE
  5
F4
100
AcDbEntity
  8
0
  6
CONTINUOUS
 62
     7
100
AcDbPolyline
 90
        4
 70
     1
 10
75.514075
 20
24.478336
 10
80.411913
 20
24.478336
 10
80.411913
 20
32.842856
 10
75.514075
 20
32.842856
  0
MTEXT
  5
F5
100
AcDbEntity
  8
0
100
AcDbMText
 10
77.962994
 20
28.660596
 30
0.0
 40
2.568327
 41
4.897837
 71
     5
 72
     5
  1
\C7;\fArial|b0|i0|;\H2.5683265227824;x
  0
ENDBLK
  5
F6
100
AcDbEntity
  8
0
100
AcDbBlockEnd
  0
BLOCK
  5
F8
100
AcDbEntity
  8
0
100
AcDbBlockBegin
  2
SINE_FUNCTION__MULTIPLE_PERIODS
 70
     0
 10
0.0
 20
0.0
 30
0.0
  3
SINE_FUNCTION__MULTIPLE_PERIODS
  1

  0
LINE
  5
F9
100
AcDbEntity
  8
0
  6
CONTINUOUS
 62
     7
100
AcDbLine
 10
-0.125
 20
25.125
 30
0.0
 11
99.875
 21
25.125
 31
0.0
  0
LINE
  5
FA
100
AcDbEntity
  8
0
  6
CONTINUOUS
 62
     7
100
AcDbLine
 10
49.875
 20
0.125
 30
0.0
 11
49.875
 21
50.125
 31
0.0
  0
SPLINE
  5
FB
100
AcDbEntity
  8
0
  6
CONTINUOUS
 62
     7
100
AcDbSpline
210
0.0
220
0.0
230
1.0
 70
     8
 71
     9
 72
    20
 73
    10
 74
     0
 42
0.0000001
 43
0.0000001
 40
0.0
 40
0.0
 40
0.0
 40
0.0
 40
0.0
 40
0.0
 40
0.0
 40
0.0
 40
0.0
 40
0.0
 40
1.0
 40
1.0
 40
1.0
 40
1.0
 40
1.0
 40
1.0
 40
1.0
 40
1.0
 40
1.0
 40
1.0
 10
72.5
 20
25.1249999999999893
 30
0.0
 10
72.5
 20
25.1249999999999893
 30
0.0
 10
73.4427083333333428
 20
29.007285676537812
 30
0.0
 10
74.3854166666666714
 20
32.625
 30
0.0
 10
75.328125
 20
35.7316017177982204
 30
0.0
 10
75.7994791666666714
 20
37.0253001043685401
 30
0.0
 10
76.2708333333333286
 20
38.1153810567665872
 30
0.0
 10
76.7421875000000142
 20
38.9831929876693053
 30
0.0
 10
77.2135416666666714
 20
39.6138873943360323
 30
0.0
 10
77.6848958333333428
 20
39.9966729206071463
 30
0.0
  0
LINE
  5
FC
100
AcDbEntity
  8
0
  6
CONTINUOUS
 62
     7
100
AcDbLine
 10
77.684896
 20
39.996673
 30
0.0
 11
78.15625
 21
40.125
 31
0.0
  0
SPLINE
  5
FD
100
AcDbEntity
  8
0
  6
CONTINUOUS
 62
     7
100
AcDbSpline
210
0.0
220
0.0
230
1.0
 70
     8
 71
     9
 72
    20
 73
    10
 74
     0
 42
0.0000001
 43
0.0000001
 40
0.0
 40
0.0
 40
0.0
 40
0.0
 40
0.0
 40
0.0
 40
0.0
 40
0.0
 40
0.0
 40
0.0
 40
1.0
 40
1.0
 40
1.0
 40
1.0
 40
1.0
 40
1.0
 40
1.0
 40
1.0
 40
1.0
 40
1.0
 10
83.8125
 20
25.1249999999998863
 30
0.0
 10
83.8125
 20
25.1249999999998863
 30
0.0
 10
82.8697916666666714
 20
29.0072856765377125
 30
0.0
 10
81.9270833333333286
 20
32.6249999999999147
 30
0.0
 10
80.984375
 20
35.7316017177981493
 30
0.0
 10
80.5130208333333428
 20
37.0253001043684691
 30
0.0
 10
80.0416666666666714
 20
38.1153810567665303
 30
0.0
 10
79.5703125
 20
38.9831929876692627
 30
0.0
 10
79.0989583333333286
 20
39.6138873943359968
 30
0.0
 10
78.6276041666666572
 20
39.9966729206071392
 30
0.0
  0
LINE
  5
FE
100
AcDbEntity
  8
0
  6
CONTINUOUS
 62
     7
100
AcDbLine
 10
78.627604
 20
39.996673
 30
0.0
 11
78.15625
 21
40.125
 31
0.0
  0
SPLINE
  5
FF
100
AcDbEntity
  8
0
  6
CONTINUOUS
 62
     7
100
AcDbSpline
210
0.0
220
0.0
230
1.0
 70
     8
 71
     9
 72
    20
 73
    10
 74
     0
 42
0.0000001
 43
0.0000001
 40
0.0
 40
0.0
 40
0.0
 40
0.0
 40
0.0
 40
0.0
 40
0.0
 40
0.0
 40
0.0
 40
0.0
 40
1.0
 40
1.0
 40
1.0
 40
1.0
 40
1.0
 40
1.0
 40
1.0
 40
1.0
 40
1.0
 40
1.0
 10
83.8125
 20
25.1249999999998934
 30
0.0
 10
83.8125
 20
25.1249999999998934
 30
0.0
 10
84.7552083333333286
 20
21.2427143234620814
 30
0.0
 10
85.6979166666666714
 20
17.6249999999998863
 30
0.0
 10
86.640625
 20
14.5183982822016926
 30
0.0
 10
87.1119791666666572
 20
13.2246998956313835
 30
0.0
 10
87.5833333333333286
 20
12.1346189432333489
 30
0.0
 10
88.0546875
 20
11.2668070123306396
 30
0.0
 10
88.5260416666666714
 20
10.6361126056639357
 30
0.0
 10
88.9973958333333286
 20
10.2533270793928235
 30
0.0
  0
LINE
  5
100
100
AcDbEntity
  8
0
  6
CONTINUOUS
 62
     7
100
AcDbLine
 10
88.997396
 20
10.253327
 30
0.0
 11
89.46875
 21
10.125
 31
0.0
  0
SPLINE
  5
101
100
AcDbEntity
  8
0
  6
CONTINUOUS
 62
     7
100
AcDbSpline
210
0.0
220
0.0
230
1.0
 70
     8
 71
     9
 72
    20
 73
    10
 74
     0
 42
0.0000001
 43
0.0000001
 40
0.0
 40
0.0
 40
0.0
 40
0.0
 40
0.0
 40
0.0
 40
0.0
 40
0.0
 40
0.0
 40
0.0
 40
1.0
 40
1.0
 40
1.0
 40
1.0
 40
1.0
 40
1.0
 40
1.0
 40
1.0
 40
1.0
 40
1.0
 10
95.125
 20
25.1250000000002061
 30
0.0
 10
95.125
 20
25.1250000000002061
 30
0.0
 10
94.1822916666666714
 20
21.2427143234623763
 30
0.0
 10
93.2395833333333286
 20
17.6250000000001634
 30
0.0
 10
92.296875
 20
14.5183982822019146
 30
0.0
 10
91.8255208333333428
 20
13.2246998956315753
 30
0.0
 10
91.3541666666666714
 20
12.1346189432335052
 30
0.0
 10
90.8828125
 20
11.2668070123307587
 30
0.0
 10
90.4114583333333286
 20
10.6361126056640174
 30
0.0
 10
89.9401041666666714
 20
10.2533270793928644
 30
0.0
  0
LINE
  5
102
100
AcDbEntity
  8
0
  6
CONTINUOUS
 62
     7
100
AcDbLine
 10
89.940104
 20
10.253327
 30
0.0
 11
89.46875
 21
10.125
 31
0.0
  0
SPLINE
  5
103
100
AcDbEntity
  8
0
  6
CONTINUOUS
 62
     7
100
AcDbSpline
210
0.0
220
0.0
230
1.0
 70
     8
 71
     9
 72
    20
 73
    10
 74
     0
 42
0.0000001
 43
0.0000001
 40
0.0
 40
0.0
 40
0.0
 40
0.0
 40
0.0
 40
0.0
 40
0.0
 40
0.0
 40
0.0
 40
0.0
 40
1.0
 40
1.0
 40
1.0
 40
1.0
 40
1.0
 40
1.0
 40
1.0
 40
1.0
 40
1.0
 40
1.0
 10
49.875
 20
25.1249999999999893
 30
0.0
 10
49.875
 20
25.1249999999999893
 30
0.0
 10
50.8177083333333286
 20
29.007285676537812
 30
0.0
 10
51.7604166666666714
 20
32.625
 30
0.0
 10
52.7031250000000071
 20
35.7316017177982204
 30
0.0
 10
53.1744791666666643
 20
37.0253001043685401
 30
0.0
 10
53.6458333333333286
 20
38.1153810567665872
 30
0.0
 10
54.1171875
 20
38.9831929876693053
 30
0.0
 10
54.5885416666666714
 20
39.6138873943360323
 30
0.0
 10
55.0598958333333286
 20
39.9966729206071463
 30
0.0
  0
LINE
  5
104
100
AcDbEntity
  8
0
  6
CONTINUOUS
 62
     7
100
AcDbLine
 10
55.059896
 20
39.996673
 30
0.0
 11
55.53125
 21
40.125
 31
0.0
  0
SPLINE
  5
105
100
AcDbEntity
  8
0
  6
CONTINUOUS
 62
     7
100
AcDbSpline
210
0.0
220
0.0
230
1.0
 70
     8
 71
     9
 72
    20
 73
    10
 74
     0
 42
0.0000001
 43
0.0000001
 40
0.0
 40
0.0
 40
0.0
 40
0.0
 40
0.0
 40
0.0
 40
0.0
 40
0.0
 40
0.0
 40
0.0
 40
1.0
 40
1.0
 40
1.0
 40
1.0
 40
1.0
 40
1.0
 40
1.0
 40
1.0
 40
1.0
 40
1.0
 10
61.1874999999999929
 20
25.1249999999998863
 30
0.0
 10
61.1874999999999929
 20
25.1249999999998863
 30
0.0
 10
60.2447916666666572
 20
29.0072856765377125
 30
0.0
 10
59.3020833333333286
 20
32.6249999999999147
 30
0.0
 10
58.3593749999999929
 20
35.7316017177981493
 30
0.0
 10
57.8880208333333286
 20
37.0253001043684691
 30
0.0
 10
57.4166666666666714
 20
38.1153810567665303
 30
0.0
 10
56.9453125
 20
38.9831929876692627
 30
0.0
 10
56.4739583333333286
 20
39.6138873943359968
 30
0.0
 10
56.0026041666666643
 20
39.9966729206071392
 30
0.0
  0
LINE
  5
106
100
AcDbEntity
  8
0
  6
CONTINUOUS
 62
     7
100
AcDbLine
 10
56.002604
 20
39.996673
 30
0.0
 11
55.53125
 21
40.125
 31
0.0
  0
SPLINE
  5
107
100
AcDbEntity
  8
0
  6
CONTINUOUS
 62
     7
100
AcDbSpline
210
0.0
220
0.0
230
1.0
 70
     8
 71
     9
 72
    20
 73
    10
 74
     0
 42
0.0000001
 43
0.0000001
 40
0.0
 40
0.0
 40
0.0
 40
0.0
 40
0.0
 40
0.0
 40
0.0
 40
0.0
 40
0.0
 40
0.0
 40
1.0
 40
1.0
 40
1.0
 40
1.0
 40
1.0
 40
1.0
 40
1.0
 40
1.0
 40
1.0
 40
1.0
 10
61.1875
 20
25.1249999999998934
 30
0.0
 10
61.1875
 20
25.1249999999998934
 30
0.0
 10
62.1302083333333286
 20
21.2427143234620814
 30
0.0
 10
63.0729166666666714
 20
17.6249999999998863
 30
0.0
 10
64.0156249999999858
 20
14.5183982822016926
 30
0.0
 10
64.4869791666666572
 20
13.2246998956313835
 30
0.0
 10
64.9583333333333428
 20
12.1346189432333489
 30
0.0
 10
65.4296875
 20
11.2668070123306396
 30
0.0
 10
65.9010416666666572
 20
10.6361126056639357
 30
0.0
 10
66.3723958333333286
 20
10.2533270793928235
 30
0.0
  0
LINE
  5
108
100
AcDbEntity
  8
0
  6
CONTINUOUS
 62
     7
100
AcDbLine
 10
66.372396
 20
10.253327
 30
0.0
 11
66.84375
 21
10.125
 31
0.0
  0
SPLINE
  5
109
100
AcDbEntity
  8
0
  6
CONTINUOUS
 62
     7
100
AcDbSpline
210
0.0
220
0.0
230
1.0
 70
     8
 71
     9
 72
    20
 73
    10
 74
     0
 42
0.0000001
 43
0.0000001
 40
0.0
 40
0.0
 40
0.0
 40
0.0
 40
0.0
 40
0.0
 40
0.0
 40
0.0
 40
0.0
 40
0.0
 40
1.0
 40
1.0
 40
1.0
 40
1.0
 40
1.0
 40
1.0
 40
1.0
 40
1.0
 40
1.0
 40
1.0
 10
72.5
 20
25.1250000000002061
 30
0.0
 10
72.5
 20
25.1250000000002061
 30
0.0
 10
71.5572916666666572
 20
21.2427143234623763
 30
0.0
 10
70.6145833333333428
 20
17.6250000000001634
 30
0.0
 10
69.6718749999999858
 20
14.5183982822019146
 30
0.0
 10
69.2005208333333286
 20
13.2246998956315753
 30
0.0
 10
68.7291666666666714
 20
12.1346189432335052
 30
0.0
 10
68.2578125
 20
11.2668070123307587
 30
0.0
 10
67.7864583333333286
 20
10.6361126056640174
 30
0.0
 10
67.3151041666666572
 20
10.2533270793928644
 30
0.0
  0
LINE
  5
10A
100
AcDbEntity
  8
0
  6
CONTINUOUS
 62
     7
100
AcDbLine
 10
67.315104
 20
10.253327
 30
0.0
 11
66.84375
 21
10.125
 31
0.0
  0
SPLINE
  5
10B
100
AcDbEntity
  8
0
  6
CONTINUOUS
 62
     7
100
AcDbSpline
210
0.0
220
0.0
230
1.0
 70
     8
 71
     9
 72
    20
 73
    10
 74
     0
 42
0.0000001
 43
0.0000001
 40
0.0
 40
0.0
 40
0.0
 40
0.0
 40
0.0
 40
0.0
 40
0.0
 40
0.0
 40
0.0
 40
0.0
 40
1.0
 40
1.0
 40
1.0
 40
1.0
 40
1.0
 40
1.0
 40
1.0
 40
1.0
 40
1.0
 40
1.0
 10
27.25
 20
25.1249999999999893
 30
0.0
 10
27.25
 20
25.1249999999999893
 30
0.0
 10
28.1927083333333357
 20
29.007285676537812
 30
0.0
 10
29.1354166666666679
 20
32.625
 30
0.0
 10
30.078125
 20
35.7316017177982204
 30
0.0
 10
30.5494791666666679
 20
37.0253001043685401
 30
0.0
 10
31.0208333333333321
 20
38.1153810567665872
 30
0.0
 10
31.4921875
 20
38.9831929876693053
 30
0.0
 10
31.9635416666666679
 20
39.6138873943360323
 30
0.0
 10
32.4348958333333357
 20
39.9966729206071463
 30
0.0
  0
LINE
  5
10C
100
AcDbEntity
  8
0
  6
CONTINUOUS
 62
     7
100
AcDbLine
 10
32.434896
 20
39.996673
 30
0.0
 11
32.90625
 21
40.125
 31
0.0
  0
SPLINE
  5
10D
100
AcDbEntity
  8
0
  6
CONTINUOUS
 62
     7
100
AcDbSpline
210
0.0
220
0.0
230
1.0
 70
     8
 71
     9
 72
    20
 73
    10
 74
     0
 42
0.0000001
 43
0.0000001
 40
0.0
 40
0.0
 40
0.0
 40
0.0
 40
0.0
 40
0.0
 40
0.0
 40
0.0
 40
0.0
 40
0.0
 40
1.0
 40
1.0
 40
1.0
 40
1.0
 40
1.0
 40
1.0
 40
1.0
 40
1.0
 40
1.0
 40
1.0
 10
38.5625
 20
25.1249999999998863
 30
0.0
 10
38.5625
 20
25.1249999999998863
 30
0.0
 10
37.6197916666666643
 20
29.0072856765377125
 30
0.0
 10
36.6770833333333357
 20
32.6249999999999147
 30
0.0
 10
35.734375
 20
35.7316017177981493
 30
0.0
 10
35.2630208333333357
 20
37.0253001043684691
 30
0.0
 10
34.7916666666666643
 20
38.1153810567665303
 30
0.0
 10
34.3203125
 20
38.9831929876692627
 30
0.0
 10
33.8489583333333357
 20
39.6138873943359968
 30
0.0
 10
33.3776041666666643
 20
39.9966729206071392
 30
0.0
  0
LINE
  5
10E
100
AcDbEntity
  8
0
  6
CONTINUOUS
 62
     7
100
AcDbLine
 10
33.377604
 20
39.996673
 30
0.0
 11
32.90625
 21
40.125
 31
0.0
  0
SPLINE
  5
10F
100
AcDbEntity
  8
0
  6
CONTINUOUS
 62
     7
100
AcDbSpline
210
0.0
220
0.0
230
1.0
 70
     8
 71
     9
 72
    20
 73
    10
 74
     0
 42
0.0000001
 43
0.0000001
 40
0.0
 40
0.0
 40
0.0
 40
0.0
 40
0.0
 40
0.0
 40
0.0
 40
0.0
 40
0.0
 40
0.0
 40
1.0
 40
1.0
 40
1.0
 40
1.0
 40
1.0
 40
1.0
 40
1.0
 40
1.0
 40
1.0
 40
1.0
 10
38.5625
 20
25.1249999999998934
 30
0.0
 10
38.5625
 20
25.1249999999998934
 30
0.0
 10
39.5052083333333357
 20
21.2427143234620814
 30
0.0
 10
40.4479166666666643
 20
17.6249999999998863
 30
0.0
 10
41.390625
 20
14.5183982822016926
 30
0.0
 10
41.8619791666666643
 20
13.2246998956313835
 30
0.0
 10
42.3333333333333357
 20
12.1346189432333489
 30
0.0
 10
42.8046875
 20
11.2668070123306396
 30
0.0
 10
43.2760416666666643
 20
10.6361126056639357
 30
0.0
 10
43.7473958333333357
 20
10.2533270793928235
 30
0.0
  0
LINE
  5
110
100
AcDbEntity
  8
0
  6
CONTINUOUS
 62
     7
100
AcDbLine
 10
43.747396
 20
10.253327
 30
0.0
 11
44.21875
 21
10.125
 31
0.0
  0
SPLINE
  5
111
100
AcDbEntity
  8
0
  6
CONTINUOUS
 62
     7
100
AcDbSpline
210
0.0
220
0.0
230
1.0
 70
     8
 71
     9
 72
    20
 73
    10
 74
     0
 42
0.0000001
 43
0.0000001
 40
0.0
 40
0.0
 40
0.0
 40
0.0
 40
0.0
 40
0.0
 40
0.0
 40
0.0
 40
0.0
 40
0.0
 40
1.0
 40
1.0
 40
1.0
 40
1.0
 40
1.0
 40
1.0
 40
1.0
 40
1.0
 40
1.0
 40
1.0
 10
49.875
 20
25.1250000000002061
 30
0.0
 10
49.875
 20
25.1250000000002061
 30
0.0
 10
48.9322916666666643
 20
21.2427143234623763
 30
0.0
 10
47.9895833333333357
 20
17.6250000000001634
 30
0.0
 10
47.046875
 20
14.5183982822019146
 30
0.0
 10
46.5755208333333357
 20
13.2246998956315753
 30
0.0
 10
46.1041666666666643
 20
12.1346189432335052
 30
0.0
 10
45.6328125
 20
11.2668070123307587
 30
0.0
 10
45.1614583333333357
 20
10.6361126056640174
 30
0.0
 10
44.6901041666666643
 20
10.2533270793928644
 30
0.0
  0
LINE
  5
112
100
AcDbEntity
  8
0
  6
CONTINUOUS
 62
     7
100
AcDbLine
 10
44.690104
 20
10.253327
 30
0.0
 11
44.21875
 21
10.125
 31
0.0
  0
SPLINE
  5
113
100
AcDbEntity
  8
0
  6
CONTINUOUS
 62
     7
100
AcDbSpline
210
0.0
220
0.0
230
1.0
 70
     8
 71
     9
 72
    20
 73
    10
 74
     0
 42
0.0000001
 43
0.0000001
 40
0.0
 40
0.0
 40
0.0
 40
0.0
 40
0.0
 40
0.0
 40
0.0
 40
0.0
 40
0.0
 40
0.0
 40
1.0
 40
1.0
 40
1.0
 40
1.0
 40
1.0
 40
1.0
 40
1.0
 40
1.0
 40
1.0
 40
1.0
 10
4.6249999999999911
 20
25.1249999999999893
 30
0.0
 10
4.6249999999999911
 20
25.1249999999999893
 30
0.0
 10
5.567708333333325
 20
29.007285676537812
 30
0.0
 10
6.5104166666666581
 20
32.625
 30
0.0
 10
7.4531249999999911
 20
35.7316017177982204
 30
0.0
 10
7.924479166666659
 20
37.0253001043685401
 30
0.0
 10
8.395833333333325
 20
38.1153810567665872
 30
0.0
 10
8.8671874999999911
 20
38.9831929876693053
 30
0.0
 10
9.3385416666666572
 20
39.6138873943360323
 30
0.0
 10
9.809895833333325
 20
39.9966729206071463
 30
0.0
  0
LINE
  5
114
100
AcDbEntity
  8
0
  6
CONTINUOUS
 62
     7
100
AcDbLine
 10
9.809896
 20
39.996673
 30
0.0
 11
10.28125
 21
40.125
 31
0.0
  0
SPLINE
  5
115
100
AcDbEntity
  8
0
  6
CONTINUOUS
 62
     7
100
AcDbSpline
210
0.0
220
0.0
230
1.0
 70
     8
 71
     9
 72
    20
 73
    10
 74
     0
 42
0.0000001
 43
0.0000001
 40
0.0
 40
0.0
 40
0.0
 40
0.0
 40
0.0
 40
0.0
 40
0.0
 40
0.0
 40
0.0
 40
0.0
 40
1.0
 40
1.0
 40
1.0
 40
1.0
 40
1.0
 40
1.0
 40
1.0
 40
1.0
 40
1.0
 40
1.0
 10
15.9374999999999911
 20
25.1249999999998863
 30
0.0
 10
15.9374999999999911
 20
25.1249999999998863
 30
0.0
 10
14.9947916666666572
 20
29.0072856765377125
 30
0.0
 10
14.0520833333333233
 20
32.6249999999999147
 30
0.0
 10
13.1093749999999911
 20
35.7316017177981493
 30
0.0
 10
12.638020833333325
 20
37.0253001043684691
 30
0.0
 10
12.1666666666666572
 20
38.1153810567665303
 30
0.0
 10
11.6953124999999911
 20
38.9831929876692627
 30
0.0
 10
11.223958333333325
 20
39.6138873943359968
 30
0.0
 10
10.7526041666666572
 20
39.9966729206071392
 30
0.0
  0
LINE
  5
116
100
AcDbEntity
  8
0
  6
CONTINUOUS
 62
     7
100
AcDbLine
 10
10.752604
 20
39.996673
 30
0.0
 11
10.28125
 21
40.125
 31
0.0
  0
SPLINE
  5
117
100
AcDbEntity
  8
0
  6
CONTINUOUS
 62
     7
100
AcDbSpline
210
0.0
220
0.0
230
1.0
 70
     8
 71
     9
 72
    20
 73
    10
 74
     0
 42
0.0000001
 43
0.0000001
 40
0.0
 40
0.0
 40
0.0
 40
0.0
 40
0.0
 40
0.0
 40
0.0
 40
0.0
 40
0.0
 40
0.0
 40
1.0
 40
1.0
 40
1.0
 40
1.0
 40
1.0
 40
1.0
 40
1.0
 40
1.0
 40
1.0
 40
1.0
 10
15.9374999999999911
 20
25.1249999999998934
 30
0.0
 10
15.9374999999999911
 20
25.1249999999998934
 30
0.0
 10
16.880208333333325
 20
21.2427143234620814
 30
0.0
 10
17.8229166666666572
 20
17.6249999999998863
 30
0.0
 10
18.7656249999999893
 20
14.5183982822016926
 30
0.0
 10
19.2369791666666572
 20
13.2246998956313835
 30
0.0
 10
19.708333333333325
 20
12.1346189432333489
 30
0.0
 10
20.1796874999999893
 20
11.2668070123306396
 30
0.0
 10
20.6510416666666572
 20
10.6361126056639357
 30
0.0
 10
21.122395833333325
 20
10.2533270793928235
 30
0.0
  0
LINE
  5
118
100
AcDbEntity
  8
0
  6
CONTINUOUS
 62
     7
100
AcDbLine
 10
21.122396
 20
10.253327
 30
0.0
 11
21.59375
 21
10.125
 31
0.0
  0
SPLINE
  5
119
100
AcDbEntity
  8
0
  6
CONTINUOUS
 62
     7
100
AcDbSpline
210
0.0
220
0.0
230
1.0
 70
     8
 71
     9
 72
    20
 73
    10
 74
     0
 42
0.0000001
 43
0.0000001
 40
0.0
 40
0.0
 40
0.0
 40
0.0
 40
0.0
 40
0.0
 40
0.0
 40
0.0
 40
0.0
 40
0.0
 40
1.0
 40
1.0
 40
1.0
 40
1.0
 40
1.0
 40
1.0
 40
1.0
 40
1.0
 40
1.0
 40
1.0
 10
27.2499999999999893
 20
25.1250000000002061
 30
0.0
 10
27.2499999999999893
 20
25.1250000000002061
 30
0.0
 10
26.3072916666666572
 20
21.2427143234623763
 30
0.0
 10
25.3645833333333215
 20
17.6250000000001634
 30
0.0
 10
24.4218749999999893
 20
14.5183982822019146
 30
0.0
 10
23.9505208333333215
 20
13.2246998956315753
 30
0.0
 10
23.4791666666666572
 20
12.1346189432335052
 30
0.0
 10
23.0078124999999893
 20
11.2668070123307587
 30
0.0
 10
22.536458333333325
 20
10.6361126056640174
 30
0.0
 10
22.0651041666666572
 20
10.2533270793928644
 30
0.0
  0
LINE
  5
11A
100
AcDbEntity
  8
0
  6
CONTINUOUS
 62
     7
100
AcDbLine
 10
22.065104
 20
10.253327
 30
0.0
 11
21.59375
 21
10.125
 31
0.0
  0
MTEXT
  5
11B
100
AcDbEntity
  8
0
100
AcDbMText
 10
74.5
 20
21.125
 30
0.0
 40
3.292847
 41
10.0
 71
     5
 72
     5
  1
\C7;\fCambria Math|b0|i0|;\H3.2928473878652;2\U+03C0
  0
MTEXT
  5
11C
100
AcDbEntity
  8
0
100
AcDbMText
 10
75.065
 20
45.375
 30
0.0
 40
3.292847
 41
50.0
 71
     5
 72
     5
  1
\C7;\fCambria Math|b0|i0|;\H3.2928473878652;y=sinx, x\U+220AR
  0
LWPOLYLINE
  5
11D
100
AcDbEntity
  8
0
  6
CONTINUOUS
 62
     7
100
AcDbPolyline
 90
        4
 70
     1
 10
45.365435
 20
40.125
 10
49.648913
 20
40.125
 10
49.648913
 20
50.063889
 10
45.365435
 20
50.063889
  0
MTEXT
  5
11E
100
AcDbEntity
  8
0
100
AcDbMText
 10
47.507174
 20
45.094444
 30
0.0
 40
3.082006
 41
4.283478
 71
     5
 72
     5
  1
\C7;\fArial|b0|i0|;\H3.0820059355348;y
  0
LWPOLYLINE
  5
11F
100
AcDbEntity
  8
0
  6
CONTINUOUS
 62
     7
100
AcDbPolyline
 90
        4
 70
     1
 10
95.520217
 20
14.013889
 10
99.568913
 20
14.013889
 10
99.568913
 20
28.125
 10
95.520217
 20
28.125
  0
MTEXT
  5
120
100
AcDbEntity
  8
0
100
AcDbMText
 10
97.544565
 20
21.069444
 30
0.0
 40
3.082006
 41
4.048696
 71
     5
 72
     5
  1
\C7;\fArial|b0|i0|;\H3.0820059355348;x
  0
LWPOLYLINE
  5
121
100
AcDbEntity
  8
0
  6
CONTINUOUS
 62
     7
100
AcDbPolyline
 90
        4
 70
     1
 10
68.771304
 20
23.069444
 10
74.228696
 20
23.069444
 10
74.228696
 20
37.180556
 10
68.771304
 20
37.180556
  0
MTEXT
  5
122
100
AcDbEntity
  8
0
100
AcDbMText
 10
71.5
 20
30.125
 30
0.0
 40
3.082006
 41
5.457391
 71
     5
 72
     5
  1
\C7;\fArial|b0|i0|;\H3.0820059355348;A
  0
LINE
  5
123
100
AcDbEntity
  8
0
  6
DASHED
 62
     7
100
AcDbLine
 10
-0.125
 20
40.125
 30
0.0
 11
99.875
 21
40.125
 31
0.0
  0
LINE
  5
124
100
AcDbEntity
  8
0
  6
DASHED
 62
     7
100
AcDbLine
 10
-0.125
 20
10.125
 30
0.0
 11
99.875
 21
10.125
 31
0.0
  0
LWPOLYLINE
  5
125
100
AcDbEntity
  8
0
  6
CONTINUOUS
 62
     7
100
AcDbPolyline
 90
        4
 70
     1
 10
48.950556
 20
15.659979
 10
53.999444
 20
15.659979
 10
53.999444
 20
27.680556
 10
48.950556
 20
27.680556
  0
MTEXT
  5
126
100
AcDbEntity
  8
0
100
AcDbMText
 10
51.475
 20
21.670267
 30
0.0
 40
3.082006
 41
5.048889
 71
     5
 72
     5
  1
\C7;\fArial|b0|i0|;\H3.0820059355348;O
  0
ENDBLK
  5
127
100
AcDbEntity
  8
0
100
AcDbBlockEnd
  0
ENDSEC
  0
SECTION
  2
ENTITIES
  0
LINE
  5
79
102
{ACAD_REACTORS
330
78
102
}
100
AcDbEntity
  8
0
  6
CONTINUOUS
 62
     7
100
AcDbLine
 10
2.579491
 20
46.329492
 30
0.0
 11
177.579497
 21
46.329492
 31
0.0
  0
LINE
  5
7A
102
{ACAD_REACTORS
330
78
102
}
100
AcDbEntity
  8
0
  6
CONTINUOUS
 62
     7
100
AcDbLine
 10
90.079494
 20
2.579491
 30
0.0
 11
90.079494
 21
90.079494
 31
0.0
  0
SPLINE
  5
7B
102
{ACAD_REACTORS
330
78
102
}
100
AcDbEntity
  8
0
  6
CONTINUOUS
 62
     7
100
AcDbSpline
210
0.0
220
0.0
230
1.0
 70
     8
 71
     9
 72
    20
 73
    10
 74
     0
 42
0.0000001
 43
0.0000001
 40
0.0
 40
0.0
 40
0.0
 40
0.0
 40
0.0
 40
0.0
 40
0.0
 40
0.0
 40
0.0
 40
0.0
 40
1.0
 40
1.0
 40
1.0
 40
1.0
 40
1.0
 40
1.0
 40
1.0
 40
1.0
 40
1.0
 40
1.0
 10
130.6058154459435912
 20
46.3294922726545977
 30
0.0
 10
130.6058154459435912
 20
46.3294922726545977
 30
0.0
 10
132.2944121814302036
 20
53.1234924428888391
 30
0.0
 10
133.9830089169168161
 20
59.4544927291377618
 30
0.0
 10
135.6716056524034002
 20
64.8910459243661535
 30
0.0
 10
136.5159040201467064
 20
67.1550181796043972
 30
0.0
 10
137.3602023878900127
 20
69.0626599126481295
 30
0.0
 10
138.2045007556333189
 20
70.5813308445467555
 30
0.0
 10
139.0487991233766252
 20
71.6850460946003665
 30
0.0
 10
139.8930974911199314
 20
72.3549207888728461
 30
0.0
  0
LINE
  5
7C
102
{ACAD_REACTORS
330
78
102
}
100
AcDbEntity
  8
0
  6
CONTINUOUS
 62
     7
100
AcDbLine
 10
139.893097
 20
72.354921
 30
0.0
 11
140.737396
 21
72.579493
 31
0.0
  0
SPLINE
  5
7D
102
{ACAD_REACTORS
330
78
102
}
100
AcDbEntity
  8
0
  6
CONTINUOUS
 62
     7
100
AcDbSpline
210
0.0
220
0.0
230
1.0
 70
     8
 71
     9
 72
    20
 73
    10
 74
     0
 42
0.0000001
 43
0.0000001
 40
0.0
 40
0.0
 40
0.0
 40
0.0
 40
0.0
 40
0.0
 40
0.0
 40
0.0
 40
0.0
 40
0.0
 40
1.0
 40
1.0
 40
1.0
 40
1.0
 40
1.0
 40
1.0
 40
1.0
 40
1.0
 40
1.0
 40
1.0
 10
150.8689762717828842
 20
46.3294922726544058
 30
0.0
 10
150.8689762717828842
 20
46.3294922726544058
 30
0.0
 10
149.1803795362962717
 20
53.1234924428886686
 30
0.0
 10
147.4917828008096592
 20
59.4544927291376055
 30
0.0
 10
145.8031860653230467
 20
64.8910459243660114
 30
0.0
 10
144.9588876975797405
 20
67.1550181796042835
 30
0.0
 10
144.1145893298364342
 20
69.0626599126480443
 30
0.0
 10
143.270290962093128
 20
70.5813308445466845
 30
0.0
 10
142.4259925943498217
 20
71.6850460946003096
 30
0.0
 10
141.5816942266065155
 20
72.3549207888728318
 30
0.0
  0
LINE
  5
7E
102
{ACAD_REACTORS
330
78
102
}
100
AcDbEntity
  8
0
  6
CONTINUOUS
 62
     7
100
AcDbLine
 10
141.581694
 20
72.354921
 30
0.0
 11
140.737396
 21
72.579493
 31
0.0
  0
SPLINE
  5
7F
102
{ACAD_REACTORS
330
78
102
}
100
AcDbEntity
  8
0
  6
CONTINUOUS
 62
     7
100
AcDbSpline
210
0.0
220
0.0
230
1.0
 70
     8
 71
     9
 72
    20
 73
    10
 74
     0
 42
0.0000001
 43
0.0000001
 40
0.0
 40
0.0
 40
0.0
 40
0.0
 40
0.0
 40
0.0
 40
0.0
 40
0.0
 40
0.0
 40
0.0
 40
1.0
 40
1.0
 40
1.0
 40
1.0
 40
1.0
 40
1.0
 40
1.0
 40
1.0
 40
1.0
 40
1.0
 10
150.8689762717828842
 20
46.32949227265442
 30
0.0
 10
150.8689762717828842
 20
46.32949227265442
 30
0.0
 10
152.5575730072694682
 20
39.5354921024201929
 30
0.0
 10
154.2461697427560807
 20
33.2044918161712701
 30
0.0
 10
155.9347664782426932
 20
27.7679386209429246
 30
0.0
 10
156.7790648459859995
 20
25.5039663657046809
 30
0.0
 10
157.6233632137293057
 20
23.5963246326609735
 30
0.0
 10
158.4676615814726119
 20
22.0776537007623617
 30
0.0
 10
159.3119599492159182
 20
20.9739384507087863
 30
0.0
 10
160.1562583169592244
 20
20.3040637564363173
 30
0.0
  0
LINE
  5
80
102
{ACAD_REACTORS
330
78
102
}
100
AcDbEntity
  8
0
  6
CONTINUOUS
 62
     7
100
AcDbLine
 10
160.156258
 20
20.304064
 30
0.0
 11
161.000557
 21
20.079491
 31
0.0
  0
SPLINE
  5
81
102
{ACAD_REACTORS
330
78
102
}
100
AcDbEntity
  8
0
  6
CONTINUOUS
 62
     7
100
AcDbSpline
210
0.0
220
0.0
230
1.0
 70
     8
 71
     9
 72
    20
 73
    10
 74
     0
 42
0.0000001
 43
0.0000001
 40
0.0
 40
0.0
 40
0.0
 40
0.0
 40
0.0
 40
0.0
 40
0.0
 40
0.0
 40
0.0
 40
0.0
 40
1.0
 40
1.0
 40
1.0
 40
1.0
 40
1.0
 40
1.0
 40
1.0
 40
1.0
 40
1.0
 40
1.0
 10
171.1321370976221488
 20
46.3294922726549743
 30
0.0
 10
171.1321370976221488
 20
46.3294922726549743
 30
0.0
 10
169.4435403621355363
 20
39.5354921024207115
 30
0.0
 10
167.7549436266489522
 20
33.2044918161717533
 30
0.0
 10
166.0663468911623397
 20
27.7679386209433083
 30
0.0
 10
165.2220485234190335
 20
25.5039663657050113
 30
0.0
 10
164.3777501556757272
 20
23.596324632661247
 30
0.0
 10
163.533451787932421
 20
22.0776537007625748
 30
0.0
 10
162.6891534201891147
 20
20.9739384507089248
 30
0.0
 10
161.8448550524458369
 20
20.3040637564363919
 30
0.0
  0
LINE
  5
82
102
{ACAD_REACTORS
330
78
102
}
100
AcDbEntity
  8
0
  6
CONTINUOUS
 62
     7
100
AcDbLine
 10
161.844855
 20
20.304064
 30
0.0
 11
161.000557
 21
20.079491
 31
0.0
  0
SPLINE
  5
83
102
{ACAD_REACTORS
330
78
102
}
100
AcDbEntity
  8
0
  6
CONTINUOUS
 62
     7
100
AcDbSpline
210
0.0
220
0.0
230
1.0
 70
     8
 71
     9
 72
    20
 73
    10
 74
     0
 42
0.0000001
 43
0.0000001
 40
0.0
 40
0.0
 40
0.0
 40
0.0
 40
0.0
 40
0.0
 40
0.0
 40
0.0
 40
0.0
 40
0.0
 40
1.0
 40
1.0
 40
1.0
 40
1.0
 40
1.0
 40
1.0
 40
1.0
 40
1.0
 40
1.0
 40
1.0
 10
90.079493794265062
 20
46.3294922726545977
 30
0.0
 10
90.079493794265062
 20
46.3294922726545977
 30
0.0
 10
91.7680905297516745
 20
53.1234924428888391
 30
0.0
 10
93.4566872652382727
 20
59.4544927291377618
 30
0.0
 10
95.145284000724871
 20
64.8910459243661535
 30
0.0
 10
95.9895823684681773
 20
67.1550181796043972
 30
0.0
 10
96.8338807362114835
 20
69.0626599126481295
 30
0.0
 10
97.6781791039547898
 20
70.5813308445467555
 30
0.0
 10
98.522477471698096
 20
71.6850460946003665
 30
0.0
 10
99.366775839441388
 20
72.3549207888728461
 30
0.0
  0
LINE
  5
84
102
{ACAD_REACTORS
330
78
102
}
100
AcDbEntity
  8
0
  6
CONTINUOUS
 62
     7
100
AcDbLine
 10
99.366776
 20
72.354921
 30
0.0
 11
100.211074
 21
72.579493
 31
0.0
  0
SPLINE
  5
85
102
{ACAD_REACTORS
330
78
102
}
100
AcDbEntity
  8
0
  6
CONTINUOUS
 62
     7
100
AcDbSpline
210
0.0
220
0.0
230
1.0
 70
     8
 71
     9
 72
    20
 73
    10
 74
     0
 42
0.0000001
 43
0.0000001
 40
0.0
 40
0.0
 40
0.0
 40
0.0
 40
0.0
 40
0.0
 40
0.0
 40
0.0
 40
0.0
 40
0.0
 40
1.0
 40
1.0
 40
1.0
 40
1.0
 40
1.0
 40
1.0
 40
1.0
 40
1.0
 40
1.0
 40
1.0
 10
110.3426546201043408
 20
46.3294922726544058
 30
0.0
 10
110.3426546201043408
 20
46.3294922726544058
 30
0.0
 10
108.6540578846177567
 20
53.1234924428886686
 30
0.0
 10
106.9654611491311442
 20
59.4544927291376055
 30
0.0
 10
105.2768644136445317
 20
64.8910459243660114
 30
0.0
 10
104.4325660459012255
 20
67.1550181796042835
 30
0.0
 10
103.5882676781579192
 20
69.0626599126480443
 30
0.0
 10
102.743969310414613
 20
70.5813308445466845
 30
0.0
 10
101.8996709426713068
 20
71.6850460946003096
 30
0.0
 10
101.0553725749280005
 20
72.3549207888728318
 30
0.0
  0
LINE
  5
86
102
{ACAD_REACTORS
330
78
102
}
100
AcDbEntity
  8
0
  6
CONTINUOUS
 62
     7
100
AcDbLine
 10
101.055373
 20
72.354921
 30
0.0
 11
100.211074
 21
72.579493
 31
0.0
  0
SPLINE
  5
87
102
{ACAD_REACTORS
330
78
102
}
100
AcDbEntity
  8
0
  6
CONTINUOUS
 62
     7
100
AcDbSpline
210
0.0
220
0.0
230
1.0
 70
     8
 71
     9
 72
    20
 73
    10
 74
     0
 42
0.0000001
 43
0.0000001
 40
0.0
 40
0.0
 40
0.0
 40
0.0
 40
0.0
 40
0.0
 40
0.0
 40
0.0
 40
0.0
 40
0.0
 40
1.0
 40
1.0
 40
1.0
 40
1.0
 40
1.0
 40
1.0
 40
1.0
 40
1.0
 40
1.0
 40
1.0
 10
110.3426546201043408
 20
46.32949227265442
 30
0.0
 10
110.3426546201043408
 20
46.32949227265442
 30
0.0
 10
112.0312513555909533
 20
39.5354921024201929
 30
0.0
 10
113.7198480910775658
 20
33.2044918161712701
 30
0.0
 10
115.4084448265641498
 20
27.7679386209429246
 30
0.0
 10
116.2527431943074845
 20
25.5039663657046809
 30
0.0
 10
117.0970415620507623
 20
23.5963246326609735
 30
0.0
 10
117.9413399297940686
 20
22.0776537007623617
 30
0.0
 10
118.7856382975373748
 20
20.9739384507087863
 30
0.0
 10
119.629936665280681
 20
20.3040637564363173
 30
0.0
  0
LINE
  5
88
102
{ACAD_REACTORS
330
78
102
}
100
AcDbEntity
  8
0
  6
CONTINUOUS
 62
     7
100
AcDbLine
 10
119.629937
 20
20.304064
 30
0.0
 11
120.474235
 21
20.079491
 31
0.0
  0
SPLINE
  5
89
102
{ACAD_REACTORS
330
78
102
}
100
AcDbEntity
  8
0
  6
CONTINUOUS
 62
     7
100
AcDbSpline
210
0.0
220
0.0
230
1.0
 70
     8
 71
     9
 72
    20
 73
    10
 74
     0
 42
0.0000001
 43
0.0000001
 40
0.0
 40
0.0
 40
0.0
 40
0.0
 40
0.0
 40
0.0
 40
0.0
 40
0.0
 40
0.0
 40
0.0
 40
1.0
 40
1.0
 40
1.0
 40
1.0
 40
1.0
 40
1.0
 40
1.0
 40
1.0
 40
1.0
 40
1.0
 10
130.6058154459436196
 20
46.3294922726549743
 30
0.0
 10
130.6058154459436196
 20
46.3294922726549743
 30
0.0
 10
128.9172187104570071
 20
39.5354921024207115
 30
0.0
 10
127.2286219749703946
 20
33.2044918161717533
 30
0.0
 10
125.5400252394837963
 20
27.7679386209433083
 30
0.0
 10
124.6957268717404901
 20
25.5039663657050113
 30
0.0
 10
123.8514285039971838
 20
23.596324632661247
 30
0.0
 10
123.0071301362538776
 20
22.0776537007625748
 30
0.0
 10
122.1628317685105856
 20
20.9739384507089248
 30
0.0
 10
121.3185334007672793
 20
20.3040637564363919
 30
0.0
  0
LINE
  5
8A
102
{ACAD_REACTORS
330
78
102
}
100
AcDbEntity
  8
0
  6
CONTINUOUS
 62
     7
100
AcDbLine
 10
121.318533
 20
20.304064
 30
0.0
 11
120.474235
 21
20.079491
 31
0.0
  0
SPLINE
  5
8B
102
{ACAD_REACTORS
330
78
102
}
100
AcDbEntity
  8
0
  6
CONTINUOUS
 62
     7
100
AcDbSpline
210
0.0
220
0.0
230
1.0
 70
     8
 71
     9
 72
    20
 73
    10
 74
     0
 42
0.0000001
 43
0.0000001
 40
0.0
 40
0.0
 40
0.0
 40
0.0
 40
0.0
 40
0.0
 40
0.0
 40
0.0
 40
0.0
 40
0.0
 40
1.0
 40
1.0
 40
1.0
 40
1.0
 40
1.0
 40
1.0
 40
1.0
 40
1.0
 40
1.0
 40
1.0
 10
49.553172142586476
 20
46.3294922726545977
 30
0.0
 10
49.553172142586476
 20
46.3294922726545977
 30
0.0
 10
51.2417688780730884
 20
53.1234924428888391
 30
0.0
 10
52.9303656135596867
 20
59.4544927291377618
 30
0.0
 10
54.6189623490462992
 20
64.8910459243661535
 30
0.0
 10
55.4632607167895983
 20
67.1550181796043972
 30
0.0
 10
56.3075590845328975
 20
69.0626599126481295
 30
0.0
 10
57.1518574522762037
 20
70.5813308445467555
 30
0.0
 10
57.99615582001951
 20
71.6850460946003665
 30
0.0
 10
58.8404541877628091
 20
72.3549207888728461
 30
0.0
  0
LINE
  5
8C
102
{ACAD_REACTORS
330
78
102
}
100
AcDbEntity
  8
0
  6
CONTINUOUS
 62
     7
100
AcDbLine
 10
58.840454
 20
72.354921
 30
0.0
 11
59.684753
 21
72.579493
 31
0.0
  0
SPLINE
  5
8D
102
{ACAD_REACTORS
330
78
102
}
100
AcDbEntity
  8
0
  6
CONTINUOUS
 62
     7
100
AcDbSpline
210
0.0
220
0.0
230
1.0
 70
     8
 71
     9
 72
    20
 73
    10
 74
     0
 42
0.0000001
 43
0.0000001
 40
0.0
 40
0.0
 40
0.0
 40
0.0
 40
0.0
 40
0.0
 40
0.0
 40
0.0
 40
0.0
 40
0.0
 40
1.0
 40
1.0
 40
1.0
 40
1.0
 40
1.0
 40
1.0
 40
1.0
 40
1.0
 40
1.0
 40
1.0
 10
69.816332968425769
 20
46.3294922726544058
 30
0.0
 10
69.816332968425769
 20
46.3294922726544058
 30
0.0
 10
68.1277362329391565
 20
53.1234924428886686
 30
0.0
 10
66.439139497452544
 20
59.4544927291376055
 30
0.0
 10
64.7505427619659315
 20
64.8910459243660114
 30
0.0
 10
63.9062443942226324
 20
67.1550181796042835
 30
0.0
 10
63.0619460264793403
 20
69.0626599126480443
 30
0.0
 10
62.2176476587360341
 20
70.5813308445466845
 30
0.0
 10
61.3733492909927278
 20
71.6850460946003096
 30
0.0
 10
60.5290509232494216
 20
72.3549207888728318
 30
0.0
  0
LINE
  5
8E
102
{ACAD_REACTORS
330
78
102
}
100
AcDbEntity
  8
0
  6
CONTINUOUS
 62
     7
100
AcDbLine
 10
60.529051
 20
72.354921
 30
0.0
 11
59.684753
 21
72.579493
 31
0.0
  0
SPLINE
  5
8F
102
{ACAD_REACTORS
330
78
102
}
100
AcDbEntity
  8
0
  6
CONTINUOUS
 62
     7
100
AcDbSpline
210
0.0
220
0.0
230
1.0
 70
     8
 71
     9
 72
    20
 73
    10
 74
     0
 42
0.0000001
 43
0.0000001
 40
0.0
 40
0.0
 40
0.0
 40
0.0
 40
0.0
 40
0.0
 40
0.0
 40
0.0
 40
0.0
 40
0.0
 40
1.0
 40
1.0
 40
1.0
 40
1.0
 40
1.0
 40
1.0
 40
1.0
 40
1.0
 40
1.0
 40
1.0
 10
69.8163329684257548
 20
46.32949227265442
 30
0.0
 10
69.8163329684257548
 20
46.32949227265442
 30
0.0
 10
71.5049297039123672
 20
39.5354921024201929
 30
0.0
 10
73.1935264393989655
 20
33.2044918161712701
 30
0.0
 10
74.882123174885578
 20
27.7679386209429246
 30
0.0
 10
75.7264215426288843
 20
25.5039663657046809
 30
0.0
 10
76.5707199103721763
 20
23.5963246326609735
 30
0.0
 10
77.4150182781154825
 20
22.0776537007623617
 30
0.0
 10
78.2593166458587888
 20
20.9739384507087863
 30
0.0
 10
79.103615013602095
 20
20.3040637564363173
 30
0.0
  0
LINE
  5
90
102
{ACAD_REACTORS
330
78
102
}
100
AcDbEntity
  8
0
  6
CONTINUOUS
 62
     7
100
AcDbLine
 10
79.103615
 20
20.304064
 30
0.0
 11
79.947913
 21
20.079491
 31
0.0
  0
SPLINE
  5
91
102
{ACAD_REACTORS
330
78
102
}
100
AcDbEntity
  8
0
  6
CONTINUOUS
 62
     7
100
AcDbSpline
210
0.0
220
0.0
230
1.0
 70
     8
 71
     9
 72
    20
 73
    10
 74
     0
 42
0.0000001
 43
0.0000001
 40
0.0
 40
0.0
 40
0.0
 40
0.0
 40
0.0
 40
0.0
 40
0.0
 40
0.0
 40
0.0
 40
0.0
 40
1.0
 40
1.0
 40
1.0
 40
1.0
 40
1.0
 40
1.0
 40
1.0
 40
1.0
 40
1.0
 40
1.0
 10
90.0794937942650336
 20
46.3294922726549743
 30
0.0
 10
90.0794937942650336
 20
46.3294922726549743
 30
0.0
 10
88.3908970587784211
 20
39.5354921024207115
 30
0.0
 10
86.7023003232918228
 20
33.2044918161717533
 30
0.0
 10
85.0137035878052103
 20
27.7679386209433083
 30
0.0
 10
84.1694052200619041
 20
25.5039663657050113
 30
0.0
 10
83.3251068523185978
 20
23.596324632661247
 30
0.0
 10
82.4808084845752916
 20
22.0776537007625748
 30
0.0
 10
81.6365101168319995
 20
20.9739384507089248
 30
0.0
 10
80.7922117490886933
 20
20.3040637564363919
 30
0.0
  0
LINE
  5
92
102
{ACAD_REACTORS
330
78
102
}
100
AcDbEntity
  8
0
  6
CONTINUOUS
 62
     7
100
AcDbLine
 10
80.792212
 20
20.304064
 30
0.0
 11
79.947913
 21
20.079491
 31
0.0
  0
SPLINE
  5
93
102
{ACAD_REACTORS
330
78
102
}
100
AcDbEntity
  8
0
  6
CONTINUOUS
 62
     7
100
AcDbSpline
210
0.0
220
0.0
230
1.0
 70
     8
 71
     9
 72
    20
 73
    10
 74
     0
 42
0.0000001
 43
0.0000001
 40
0.0
 40
0.0
 40
0.0
 40
0.0
 40
0.0
 40
0.0
 40
0.0
 40
0.0
 40
0.0
 40
0.0
 40
1.0
 40
1.0
 40
1.0
 40
1.0
 40
1.0
 40
1.0
 40
1.0
 40
1.0
 40
1.0
 40
1.0
 10
9.0268504909079645
 20
46.3294922726545977
 30
0.0
 10
9.0268504909079645
 20
46.3294922726545977
 30
0.0
 10
10.7154472263945699
 20
53.1234924428888391
 30
0.0
 10
12.4040439618811789
 20
59.4544927291377618
 30
0.0
 10
14.0926406973677825
 20
64.8910459243661535
 30
0.0
 10
14.9369390651110869
 20
67.1550181796043972
 30
0.0
 10
15.7812374328543896
 20
69.0626599126481295
 30
0.0
 10
16.6255358005976923
 20
70.5813308445467555
 30
0.0
 10
17.4698341683409986
 20
71.6850460946003665
 30
0.0
 10
18.3141325360842977
 20
72.3549207888728461
 30
0.0
  0
LINE
  5
94
102
{ACAD_REACTORS
330
78
102
}
100
AcDbEntity
  8
0
  6
CONTINUOUS
 62
     7
100
AcDbLine
 10
18.314133
 20
72.354921
 30
0.0
 11
19.158431
 21
72.579493
 31
0.0
  0
SPLINE
  5
95
102
{ACAD_REACTORS
330
78
102
}
100
AcDbEntity
  8
0
  6
CONTINUOUS
 62
     7
100
AcDbSpline
210
0.0
220
0.0
230
1.0
 70
     8
 71
     9
 72
    20
 73
    10
 74
     0
 42
0.0000001
 43
0.0000001
 40
0.0
 40
0.0
 40
0.0
 40
0.0
 40
0.0
 40
0.0
 40
0.0
 40
0.0
 40
0.0
 40
0.0
 40
1.0
 40
1.0
 40
1.0
 40
1.0
 40
1.0
 40
1.0
 40
1.0
 40
1.0
 40
1.0
 40
1.0
 10
29.2900113167472433
 20
46.3294922726544058
 30
0.0
 10
29.2900113167472433
 20
46.3294922726544058
 30
0.0
 10
27.6014145812606415
 20
53.1234924428886686
 30
0.0
 10
25.912817845774029
 20
59.4544927291376055
 30
0.0
 10
24.2242211102874236
 20
64.8910459243660114
 30
0.0
 10
23.3799227425441245
 20
67.1550181796042835
 30
0.0
 10
22.5356243748008218
 20
69.0626599126480443
 30
0.0
 10
21.6913260070575156
 20
70.5813308445466845
 30
0.0
 10
20.8470276393142129
 20
71.6850460946003096
 30
0.0
 10
20.0027292715709066
 20
72.3549207888728318
 30
0.0
  0
LINE
  5
96
102
{ACAD_REACTORS
330
78
102
}
100
AcDbEntity
  8
0
  6
CONTINUOUS
 62
     7
100
AcDbLine
 10
20.002729
 20
72.354921
 30
0.0
 11
19.158431
 21
72.579493
 31
0.0
  0
SPLINE
  5
97
102
{ACAD_REACTORS
330
78
102
}
100
AcDbEntity
  8
0
  6
CONTINUOUS
 62
     7
100
AcDbSpline
210
0.0
220
0.0
230
1.0
 70
     8
 71
     9
 72
    20
 73
    10
 74
     0
 42
0.0000001
 43
0.0000001
 40
0.0
 40
0.0
 40
0.0
 40
0.0
 40
0.0
 40
0.0
 40
0.0
 40
0.0
 40
0.0
 40
0.0
 40
1.0
 40
1.0
 40
1.0
 40
1.0
 40
1.0
 40
1.0
 40
1.0
 40
1.0
 40
1.0
 40
1.0
 10
29.2900113167472433
 20
46.32949227265442
 30
0.0
 10
29.2900113167472433
 20
46.32949227265442
 30
0.0
 10
30.9786080522338487
 20
39.5354921024201929
 30
0.0
 10
32.6672047877204577
 20
33.2044918161712701
 30
0.0
 10
34.3558015232070701
 20
27.7679386209429246
 30
0.0
 10
35.2000998909503764
 20
25.5039663657046809
 30
0.0
 10
36.0443982586936684
 20
23.5963246326609735
 30
0.0
 10
36.8886966264369747
 20
22.0776537007623617
 30
0.0
 10
37.7329949941802809
 20
20.9739384507087863
 30
0.0
 10
38.5772933619235872
 20
20.3040637564363173
 30
0.0
  0
LINE
  5
98
102
{ACAD_REACTORS
330
78
102
}
100
AcDbEntity
  8
0
  6
CONTINUOUS
 62
     7
100
AcDbLine
 10
38.577293
 20
20.304064
 30
0.0
 11
39.421592
 21
20.079491
 31
0.0
  0
SPLINE
  5
99
102
{ACAD_REACTORS
330
78
102
}
100
AcDbEntity
  8
0
  6
CONTINUOUS
 62
     7
100
AcDbSpline
210
0.0
220
0.0
230
1.0
 70
     8
 71
     9
 72
    20
 73
    10
 74
     0
 42
0.0000001
 43
0.0000001
 40
0.0
 40
0.0
 40
0.0
 40
0.0
 40
0.0
 40
0.0
 40
0.0
 40
0.0
 40
0.0
 40
0.0
 40
1.0
 40
1.0
 40
1.0
 40
1.0
 40
1.0
 40
1.0
 40
1.0
 40
1.0
 40
1.0
 40
1.0
 10
49.5531721425865186
 20
46.3294922726549743
 30
0.0
 10
49.5531721425865186
 20
46.3294922726549743
 30
0.0
 10
47.8645754070999061
 20
39.5354921024207115
 30
0.0
 10
46.1759786716133078
 20
33.2044918161717533
 30
0.0
 10
44.4873819361266953
 20
27.7679386209433083
 30
0.0
 10
43.6430835683833891
 20
25.5039663657050113
 30
0.0
 10
42.7987852006400971
 20
23.596324632661247
 30
0.0
 10
41.9544868328967908
 20
22.0776537007625748
 30
0.0
 10
41.1101884651534846
 20
20.9739384507089248
 30
0.0
 10
40.2658900974101854
 20
20.3040637564363919
 30
0.0
  0
LINE
  5
9A
102
{ACAD_REACTORS
330
78
102
}
100
AcDbEntity
  8
0
  6
CONTINUOUS
 62
     7
100
AcDbLine
 10
40.26589
 20
20.304064
 30
0.0
 11
39.421592
 21
20.079491
 31
0.0
  0
LINE
  5
9C
102
{ACAD_REACTORS
330
78
102
}
100
AcDbEntity
  8
0
  6
DASHED
 62
     7
100
AcDbLine
 10
2.579491
 20
72.579493
 30
0.0
 11
177.579497
 21
72.579493
 31
0.0
  0
LINE
  5
9D
102
{ACAD_REACTORS
330
78
102
}
100
AcDbEntity
  8
0
  6
DASHED
 62
     7
100
AcDbLine
 10
2.579491
 20
20.079491
 30
0.0
 11
177.579497
 21
20.079491
 31
0.0
  0
ENDSEC
  0
SECTION
  2
OBJECTS
  0
DICTIONARY
  5
C
100
AcDbDictionary
  3
ACAD_GROUP
350
D
  3
ACAD_MLINESTYLE
350
1B
  3
ACAD_SCALELIST
350
2C
  3
ACAD_VISUALSTYLE
350
51
  3
ACAD_MATERIAL
350
6A
  3
ACAD_TABLESTYLE
350
6E
  3
ACAD_MLEADERSTYLE
350
70
  0
DICTIONARY
  5
D
102
{ACAD_REACTORS
330
C
102
}
100
AcDbDictionary
  3
VISIOGROUP_0
350
74
  3
VISIOGROUP_1
350
75
  3
VISIOGROUP_2
350
76
  3
VISIOGROUP_3
350
77
  3
VISIOGROUP_4
350
78
  0
DICTIONARY
  5
1B
102
{ACAD_REACTORS
330
C
102
}
100
AcDbDictionary
  3
STANDARD
350
1C
  0
MLINESTYLE
  5
1C
102
{ACAD_REACTORS
330
1B
102
}
100
AcDbMlineStyle
  2
STANDARD
 70
     0
  3

 62
   256
 51
90.0
 52
90.0
 71
     2
 49
0.5
 62
   256
  6
BYLAYER
 49
-0.5
 62
   256
  6
BYLAYER
  0
DICTIONARY
  5
29
102
{ACAD_REACTORS
330
C
102
}
100
AcDbDictionary
  0
DICTIONARY
  5
2C
102
{ACAD_REACTORS
330
C
102
}
100
AcDbDictionary
  3
A0
350
2D
  3
A1
350
2E
  3
A2
350
2F
  3
A3
350
30
  3
A4
350
31
  3
A5
350
32
  3
A6
350
33
  3
A7
350
34
  3
A8
350
35
  3
A9
350
36
  3
B0
350
37
  3
B1
350
38
  3
B2
350
39
  3
B3
350
3A
  3
B4
350
3B
  3
B5
350
3C
  3
B6
350
3D
  3
B7
350
3E
  3
B8
350
3F
  3
B9
350
40
  3
C0
350
41
  3
C1
350
42
  3
C2
350
43
  3
C3
350
44
  3
C4
350
45
  3
C5
350
46
  3
C6
350
47
  3
C7
350
48
  3
C8
350
49
  3
C9
350
4A
  3
D0
350
4B
  3
D1
350
4C
  3
D2
350
4D
  0
DICTIONARY
  5
4E
102
{ACAD_REACTORS
330
C
102
}
100
AcDbDictionary
  3
MODEL
350
4F
  3
LAYOUT1
350
50
  0
DICTIONARY
  5
51
102
{ACAD_REACTORS
330
C
102
}
100
AcDbDictionary
  3
FLAT
350
52
  3
FLATWITHEDGES
350
53
  3
GOURAUD
350
54
  3
GOURAUDWITHEDGES
350
55
  3
2DWIREFRAME
350
56
  3
WIREFRAME
350
57
  3
HIDDEN
350
58
  3
BASIC
350
59
  3
REALISTIC
350
5A
  3
CONCEPTUAL
350
5B
  3
DIM
350
5C
  3
BRIGHTEN
350
5D
  3
THICKEN
350
5E
  3
LINEPATTERN
350
5F
  3
FACEPATTERN
350
60
  3
COLORCHANGE
350
61
  3
JITTEROFF
350
62
  3
OVERHANGOFF
350
63
  3
EDGECOLOROFF
350
64
  3
SHADES OF GRAY
350
65
  3
SKETCHY
350
66
  3
X-RAY
350
67
  3
SHADED WITH EDGES
350
68
  3
SHADED
350
69
  0
DICTIONARY
  5
6A
102
{ACAD_REACTORS
330
C
102
}
100
AcDbDictionary
  3
BYLAYER
350
6B
  3
BYBLOCK
350
6C
  3
GLOBAL
350
6D
  0
DICTIONARY
  5
6E
102
{ACAD_REACTORS
330
C
102
}
100
AcDbDictionary
  3
STANDARD
350
6F
  0
DICTIONARY
  5
70
102
{ACAD_REACTORS
330
C
102
}
100
AcDbDictionary
  3
STANDARD
350
71
  0
GROUP
  5
74
102
{ACAD_REACTORS
330
D
102
}
100
AcDbGroup
300
Group created by Visio.
 70
     0
 71
     1
  0
GROUP
  5
75
102
{ACAD_REACTORS
330
D
102
}
100
AcDbGroup
300
Group created by Visio.
 70
     0
 71
     1
  0
GROUP
  5
76
102
{ACAD_REACTORS
330
D
102
}
100
AcDbGroup
300
Group created by Visio.
 70
     0
 71
     1
  0
GROUP
  5
77
102
{ACAD_REACTORS
330
D
102
}
100
AcDbGroup
300
Group created by Visio.
 70
     0
 71
     1
  0
GROUP
  5
78
102
{ACAD_REACTORS
330
D
102
}
100
AcDbGroup
300
Group created by Visio.
 70
     0
 71
     1
340
79
340
7A
340
7B
340
7C
340
7D
340
7E
340
7F
340
80
340
81
340
82
340
83
340
84
340
85
340
86
340
87
340
88
340
89
340
8A
340
8B
340
8C
340
8D
340
8E
340
8F
340
90
340
91
340
92
340
93
340
94
340
95
340
96
340
97
340
98
340
99
340
9A
340
9C
340
9D
  0
ENDSEC
  0
EOF
